<svg xmlns="http://www.w3.org/2000/svg" xmlns:xlink="http://www.w3.org/1999/xlink" xmlns:inkscape="http://www.inkscape.org/namespaces/inkscape" version="1.1" width="301" height="64" viewBox="0 0 301 64">
<defs>
<path id="font_1_42" d="M.6649933 .23271179C.6649933 .24272156 .6649933 .24972534 .6519928 .24972534 .6409912 .24972534 .6409912 .24372864 .6399994 .23371887 .6319885 .09059143 .5249939 .008529663 .41600038 .008529663 .35499574 .008529663 .15899658 .042556764 .15899658 .34080506 .15899658 .64004519 .35398866 .67407229 .4149933 .67407229 .5239868 .67407229 .61299136 .58299258 .6329956 .4368744 .6349945 .42286683 .6349945 .41986085 .6489868 .41986085 .6649933 .41986085 .6649933 .42286683 .6649933 .44387818V.68107607C.6649933 .69807437 .6649933 .7050781 .6539917 .7050781 .6499939 .7050781 .6459961 .7050781 .6380005 .69306948L.58799746 .61901858C.5509949 .6550598 .5 .7050781 .4039917 .7050781 .21699524 .7050781 .055999757 .5459595 .055999757 .34179688 .055999757 .1346283 .21798706-.022460938 .4039917-.022460938 .5669861-.022460938 .6649933 .116622928 .6649933 .23271179Z"/>
<path id="font_1_28" d="M.48298646 .08912659V.14511109H.45799256V.08912659C.45799256 .03112793 .43299867 .025131226 .42199708 .025131226 .3889923 .025131226 .3849945 .070129398 .3849945 .07511902V.27508546C.3849945 .31707765 .3849945 .3560791 .34899903 .39312745 .30999757 .43223573 .2599945 .4482422 .21199036 .4482422 .12998963 .4482422 .06098938 .40115357 .06098938 .335083 .06098938 .30508424 .08099365 .28808595 .10699463 .28808595 .1349945 .28808595 .15299988 .30807496 .15299988 .33407594 .15299988 .3460846 .147995 .37908937 .101989749 .38008119 .1289978 .41519166 .17799378 .426239 .20999146 .426239 .25898744 .426239 .31599427 .38710023 .31599427 .29808045V.26107789C.2649994 .25808717 .19499207 .25508119 .13198853 .22509766 .056991579 .19110108 .03199768 .13911438 .03199768 .09512329 .03199768 .014251709 .1289978-.0107421879 .19198609-.0107421879 .2579956-.0107421879 .3039856 .029251099 .32299806 .07624817 .32699586 .036132814 .35398866-.005859375 .40098573-.005859375 .42199708-.005859375 .48298646 .008132935 .48298646 .08912659M.31599427 .14013672C.31599427 .04525757 .24398804 .011245728 .19898987 .011245728 .1499939 .011245728 .10899353 .04624939 .10899353 .09625244 .10899353 .15124512 .15098572 .23425293 .31599427 .24024964V.14013672Z"/>
<path id="font_1_98" d="M.3600006 .12823487C.3600006 .18122864 .32998658 .21122742 .31799317 .22323609 .2849884 .25523377 .24598694 .26322938 .20399475 .27124024 .147995 .28224183 .08099365 .29522706 .08099365 .35324098 .08099365 .38822938 .10699463 .42922975 .19299317 .42922975 .30299378 .42922975 .30799867 .3392334 .30999757 .30822755 .31098939 .2992401 .32199098 .2992401 .32199098 .2992401 .33499146 .2992401 .33499146 .30422975 .33499146 .32322694V.4242401C.33499146 .4412384 .33499146 .4482422 .32398988 .4482422 .31900025 .4482422 .31698609 .4482422 .3039856 .43623353 .30099488 .43223573 .29100038 .42323304 .2869873 .42022706 .24899292 .4482422 .20799256 .4482422 .19299317 .4482422 .070999149 .4482422 .032989503 .38124085 .032989503 .3252411 .032989503 .29023744 .04899597 .26223756 .07598877 .24023438 .10798645 .2142334 .13598633 .2082367 .20799256 .19422913 .22999573 .19021607 .31199647 .17422486 .31199647 .10221863 .31199647 .051223756 .2769928 .011245728 .19898987 .011245728 .114990238 .011245728 .07899475 .068222049 .05999756 .1532135 .056991579 .16621399 .055999757 .17021179 .04598999 .17021179 .032989503 .17021179 .032989503 .16322327 .032989503 .1452179V.013214111C.032989503-.003753662 .032989503-.0107421879 .04399109-.0107421879 .04899597-.0107421879 .049987794-.009750366 .068984989 .009246826 .070999149 .011245728 .070999149 .013214111 .08898926 .032226564 .1329956-.009750366 .17799378-.0107421879 .19898987-.0107421879 .31399537-.0107421879 .3600006 .05621338 .3600006 .1282196V.12823487Z"/>
<path id="font_1_50" d="M.4149933 .11933899C.4149933 .12934876 .40699769 .13134766 .4019928 .13134766 .3929901 .13134766 .3909912 .12535095 .3889923 .11734009 .35398866 .014251709 .2639923 .014251709 .2539978 .014251709 .20399475 .014251709 .1639862 .044281007 .14099121 .08131409 .11099243 .12934876 .11099243 .19540406 .11099243 .23144531H.3899994C.4119873 .23144531 .4149933 .23144531 .4149933 .2524414 .4149933 .35131837 .36099244 .4482422 .23599243 .4482422 .11999512 .4482422 .027999878 .34532167 .027999878 .22042847 .027999878 .08631897 .1329956-.0107421879 .24798584-.0107421879 .36999513-.0107421879 .4149933 .10032654 .4149933 .11933899M.34899903 .2524414H.11199951C.117996219 .40126039 .20199585 .426239 .23599243 .426239 .33898927 .426239 .34899903 .2913971 .34899903 .2524414Z"/>
<path id="font_1_82" d="M.4189911 0V.0309906H.3869934C.29699708 .0309906 .2939911 .041992189 .2939911 .07902527V.64012148C.2939911 .6640167 .2939911 .6660156 .2709961 .6660156 .20899964 .60227969 .12098694 .60227969 .08898926 .60227969V.57128909C.10899353 .57128909 .16799927 .57128909 .21998596 .5972748V.07902527C.21998596 .042999269 .21699524 .0309906 .1269989 .0309906H.09498596V0C.12998963 .0029907227 .21699524 .0029907227 .25698854 .0029907227 .29699708 .0029907227 .38398744 .0029907227 .4189911 0Z"/>
<path id="font_1_107" d="M.44898988 .17396546H.42399598C.4189911 .14398194 .4119873 .099990848 .4019928 .084991458 .394989 .07699585 .32899476 .07699585 .30699159 .07699585H.1269989L.23298645 .17996216C.3889923 .31803895 .44898988 .37210084 .44898988 .47216798 .44898988 .5860901 .35899354 .6660156 .23699951 .6660156 .12399292 .6660156 .049987794 .57411196 .049987794 .48516847 .049987794 .4291687 .099990848 .4291687 .102996829 .4291687 .11999512 .4291687 .15499878 .44117738 .15499878 .48217774 .15499878 .5081787 .13699341 .5341797 .101989749 .5341797 .09399414 .5341797 .09199524 .5341797 .08898926 .5331726 .11199951 .59806826 .1659851 .63500979 .22399903 .63500979 .31498719 .63500979 .35798646 .5541382 .35798646 .47216798 .35798646 .39196778 .30799867 .31297303 .25299073 .25097657L.06098938 .036987306C.049987794 .025985718 .049987794 .023986817 .049987794 0H.42099L.44898988 .17396546Z"/>
<path id="font_1_106" d="M.45700074 .17037964C.45700074 .252594 .3939972 .33088685 .2899933 .35191346 .37199403 .37893678 .42999269 .4490509 .42999269 .52809146 .42999269 .6100464 .34199525 .6660156 .24598694 .6660156 .14498902 .6660156 .068984989 .60606387 .068984989 .53009036 .068984989 .49710084 .09098816 .47808839 .11999512 .47808839 .15098572 .47808839 .17098999 .50009158 .17098999 .5290985 .17098999 .57910159 .12399292 .57910159 .10899353 .57910159 .13999939 .62802127 .20599365 .64100649 .24198914 .64100649 .2829895 .64100649 .33799745 .6190338 .33799745 .5290985 .33799745 .51708987 .33599855 .45906068 .30999757 .4149933 .27999879 .36691285 .24598694 .36390687 .22099304 .36291505 .21299744 .36190797 .18899536 .35990907 .18199158 .35990907 .17399597 .35890199 .16699219 .35791017 .16699219 .3479004 .16699219 .33691407 .17399597 .33691407 .19099427 .33691407H.23498535C.31698609 .33691407 .35398866 .2686615 .35398866 .17037964 .35398866 .034469606 .2849884 .0055389406 .24099732 .0055389406 .19799805 .0055389406 .12298584 .022491456 .08799744 .08137512 .12298584 .07637024 .1539917 .09837341 .1539917 .1363678 .1539917 .17237854 .1269989 .19238281 .09799194 .19238281 .07398987 .19238281 .041992189 .17837525 .041992189 .1343689 .041992189 .043441774 .1349945-.022460938 .24398804-.022460938 .3659973-.022460938 .45700074 .06838989 .45700074 .17037964Z"/>
<path id="font_1_57" d="M.47099305 .16503906V.19602967H.37098695V.6507721C.37098695 .6707611 .37098695 .6767578 .35499574 .6767578 .34599305 .6767578 .34298707 .6767578 .33499146 .6647644L.027999878 .19602967V.16503906H.2939911V.07800293C.2939911 .041992189 .2919922 .0309906 .21798706 .0309906H.19699097V0C.23799134 .0029907227 .2899933 .0029907227 .33198548 .0029907227 .37399293 .0029907227 .4269867 .0029907227 .46798707 0V.0309906H.44699098C.37298585 .0309906 .37098695 .041992189 .37098695 .07800293V.16503906H.47099305M.2999878 .19602967H.055999757L.2999878 .56881716V.19602967Z"/>
</defs>
<path transform="matrix(1.00006,0,0,-1.0001,4.2903597,47.357137)" d="M0 0V11.33855H11.33855V0ZM11.33855 11.33855" fill="#ccccff"/>
<path transform="matrix(1.00006,0,0,-1.0001,4.2903597,47.357137)" stroke-width=".79701" stroke-linecap="butt" stroke-miterlimit="10" stroke-linejoin="miter" fill="none" stroke="#000000" d="M0 0V11.33855H11.33855V0ZM11.33855 11.33855"/>
<path transform="matrix(1.00006,0,0,-1.0001,4.2903597,47.357137)" d="M11.33855 0V11.33855H22.6771V0ZM22.6771 11.33855" fill="#ccccff"/>
<path transform="matrix(1.00006,0,0,-1.0001,4.2903597,47.357137)" stroke-width=".79701" stroke-linecap="butt" stroke-miterlimit="10" stroke-linejoin="miter" fill="none" stroke="#000000" d="M11.33855 0V11.33855H22.6771V0ZM22.6771 11.33855"/>
<use data-text="C" xlink:href="#font_1_42" transform="matrix(9.963197,0,0,-9.963596,1.2171784,62.09961)"/>
<use data-text="a" xlink:href="#font_1_28" transform="matrix(9.963197,0,0,-9.963596,8.410606,62.09961)"/>
<use data-text="s" xlink:href="#font_1_98" transform="matrix(9.963197,0,0,-9.963596,13.392204,62.09961)"/>
<use data-text="e" xlink:href="#font_1_50" transform="matrix(9.963197,0,0,-9.963596,17.317704,62.09961)"/>
<use data-text="1" xlink:href="#font_1_82" transform="matrix(9.963197,0,0,-9.963596,25.049149,62.09961)"/>
<path transform="matrix(1.00006,0,0,-1.0001,4.2903597,47.357137)" d="M45.35419 0V11.33855H56.69273V0ZM56.69273 11.33855" fill="#ccccff"/>
<path transform="matrix(1.00006,0,0,-1.0001,4.2903597,47.357137)" stroke-width=".79701" stroke-linecap="butt" stroke-miterlimit="10" stroke-linejoin="miter" fill="none" stroke="#000000" d="M45.35419 0V11.33855H56.69273V0ZM56.69273 11.33855"/>
<path transform="matrix(1.00006,0,0,-1.0001,4.2903597,47.357137)" d="M45.35419 11.33855V22.6771H56.69273V11.33855ZM56.69273 22.6771" fill="#ccccff"/>
<path transform="matrix(1.00006,0,0,-1.0001,4.2903597,47.357137)" stroke-width=".79701" stroke-linecap="butt" stroke-miterlimit="10" stroke-linejoin="miter" fill="none" stroke="#000000" d="M45.35419 11.33855V22.6771H56.69273V11.33855ZM56.69273 22.6771"/>
<path transform="matrix(1.00006,0,0,-1.0001,4.2903597,47.357137)" d="M56.69273 0V11.33855H68.03128V0ZM68.03128 11.33855" fill="#ccccff"/>
<path transform="matrix(1.00006,0,0,-1.0001,4.2903597,47.357137)" stroke-width=".79701" stroke-linecap="butt" stroke-miterlimit="10" stroke-linejoin="miter" fill="none" stroke="#000000" d="M56.69273 0V11.33855H68.03128V0ZM68.03128 11.33855"/>
<path transform="matrix(1.00006,0,0,-1.0001,4.2903597,47.357137)" d="M68.03128 0V11.33855H79.36983V0ZM79.36983 11.33855" fill="#ccccff"/>
<path transform="matrix(1.00006,0,0,-1.0001,4.2903597,47.357137)" stroke-width=".79701" stroke-linecap="butt" stroke-miterlimit="10" stroke-linejoin="miter" fill="none" stroke="#000000" d="M68.03128 0V11.33855H79.36983V0ZM79.36983 11.33855"/>
<path transform="matrix(1.00006,0,0,-1.0001,4.2903597,47.357137)" d="M79.36983 0V11.33855H90.70837V0ZM90.70837 11.33855" fill="#ccccff"/>
<path transform="matrix(1.00006,0,0,-1.0001,4.2903597,47.357137)" stroke-width=".79701" stroke-linecap="butt" stroke-miterlimit="10" stroke-linejoin="miter" fill="none" stroke="#000000" d="M79.36983 0V11.33855H90.70837V0ZM90.70837 11.33855"/>
<use data-text="C" xlink:href="#font_1_42" transform="matrix(9.963197,0,0,-9.963596,52.244237,62.09961)"/>
<use data-text="a" xlink:href="#font_1_28" transform="matrix(9.963197,0,0,-9.963596,59.437665,62.09961)"/>
<use data-text="s" xlink:href="#font_1_98" transform="matrix(9.963197,0,0,-9.963596,64.419269,62.09961)"/>
<use data-text="e" xlink:href="#font_1_50" transform="matrix(9.963197,0,0,-9.963596,68.34476,62.09961)"/>
<use data-text="2" xlink:href="#font_1_107" transform="matrix(9.963197,0,0,-9.963596,76.0762,62.09961)"/>
<path transform="matrix(1.00006,0,0,-1.0001,4.2903597,47.357137)" d="M113.3855 0V11.33855H124.72404V0ZM124.72404 11.33855" fill="#ccccff"/>
<path transform="matrix(1.00006,0,0,-1.0001,4.2903597,47.357137)" stroke-width=".79701" stroke-linecap="butt" stroke-miterlimit="10" stroke-linejoin="miter" fill="none" stroke="#000000" d="M113.3855 0V11.33855H124.72404V0ZM124.72404 11.33855"/>
<path transform="matrix(1.00006,0,0,-1.0001,4.2903597,47.357137)" d="M113.3855 11.33855V22.6771H124.72404V11.33855ZM124.72404 22.6771" fill="#ccccff"/>
<path transform="matrix(1.00006,0,0,-1.0001,4.2903597,47.357137)" stroke-width=".79701" stroke-linecap="butt" stroke-miterlimit="10" stroke-linejoin="miter" fill="none" stroke="#000000" d="M113.3855 11.33855V22.6771H124.72404V11.33855ZM124.72404 22.6771"/>
<path transform="matrix(1.00006,0,0,-1.0001,4.2903597,47.357137)" d="M113.3855 22.6771V34.01564H124.72404V22.6771ZM124.72404 34.01564" fill="#ccccff"/>
<path transform="matrix(1.00006,0,0,-1.0001,4.2903597,47.357137)" stroke-width=".79701" stroke-linecap="butt" stroke-miterlimit="10" stroke-linejoin="miter" fill="none" stroke="#000000" d="M113.3855 22.6771V34.01564H124.72404V22.6771ZM124.72404 34.01564"/>
<path transform="matrix(1.00006,0,0,-1.0001,4.2903597,47.357137)" d="M124.72404 0V11.33855H136.06259V0ZM136.06259 11.33855" fill="#ccccff"/>
<path transform="matrix(1.00006,0,0,-1.0001,4.2903597,47.357137)" stroke-width=".79701" stroke-linecap="butt" stroke-miterlimit="10" stroke-linejoin="miter" fill="none" stroke="#000000" d="M124.72404 0V11.33855H136.06259V0ZM136.06259 11.33855"/>
<path transform="matrix(1.00006,0,0,-1.0001,4.2903597,47.357137)" d="M136.06259 0V11.33855H147.40114V0ZM147.40114 11.33855" fill="#ccccff"/>
<path transform="matrix(1.00006,0,0,-1.0001,4.2903597,47.357137)" stroke-width=".79701" stroke-linecap="butt" stroke-miterlimit="10" stroke-linejoin="miter" fill="none" stroke="#000000" d="M136.06259 0V11.33855H147.40114V0ZM147.40114 11.33855"/>
<path transform="matrix(1.00006,0,0,-1.0001,4.2903597,47.357137)" d="M147.40114 0V11.33855H158.73969V0ZM158.73969 11.33855" fill="#ccccff"/>
<path transform="matrix(1.00006,0,0,-1.0001,4.2903597,47.357137)" stroke-width=".79701" stroke-linecap="butt" stroke-miterlimit="10" stroke-linejoin="miter" fill="none" stroke="#000000" d="M147.40114 0V11.33855H158.73969V0ZM158.73969 11.33855"/>
<path transform="matrix(1.00006,0,0,-1.0001,4.2903597,47.357137)" d="M158.73969 0V11.33855H170.07825V0ZM170.07825 11.33855" fill="#ccccff"/>
<path transform="matrix(1.00006,0,0,-1.0001,4.2903597,47.357137)" stroke-width=".79701" stroke-linecap="butt" stroke-miterlimit="10" stroke-linejoin="miter" fill="none" stroke="#000000" d="M158.73969 0V11.33855H170.07825V0ZM170.07825 11.33855"/>
<path transform="matrix(1.00006,0,0,-1.0001,4.2903597,47.357137)" d="M170.07825 0V11.33855H181.4168V0ZM181.4168 11.33855" fill="#ccccff"/>
<path transform="matrix(1.00006,0,0,-1.0001,4.2903597,47.357137)" stroke-width=".79701" stroke-linecap="butt" stroke-miterlimit="10" stroke-linejoin="miter" fill="none" stroke="#000000" d="M170.07825 0V11.33855H181.4168V0ZM181.4168 11.33855"/>
<use data-text="C" xlink:href="#font_1_42" transform="matrix(9.963197,0,0,-9.963596,131.61899,62.09961)"/>
<use data-text="a" xlink:href="#font_1_28" transform="matrix(9.963197,0,0,-9.963596,138.81243,62.09961)"/>
<use data-text="s" xlink:href="#font_1_98" transform="matrix(9.963197,0,0,-9.963596,143.79402,62.09961)"/>
<use data-text="e" xlink:href="#font_1_50" transform="matrix(9.963197,0,0,-9.963596,147.71952,62.09961)"/>
<use data-text="3" xlink:href="#font_1_106" transform="matrix(9.963197,0,0,-9.963596,155.45096,62.09961)"/>
<path transform="matrix(1.00006,0,0,-1.0001,4.2903597,47.357137)" d="M204.09389 0V11.33855H215.43245V0ZM215.43245 11.33855" fill="#ccccff"/>
<path transform="matrix(1.00006,0,0,-1.0001,4.2903597,47.357137)" stroke-width=".79701" stroke-linecap="butt" stroke-miterlimit="10" stroke-linejoin="miter" fill="none" stroke="#000000" d="M204.09389 0V11.33855H215.43245V0ZM215.43245 11.33855"/>
<path transform="matrix(1.00006,0,0,-1.0001,4.2903597,47.357137)" d="M204.09389 11.33855V22.6771H215.43245V11.33855ZM215.43245 22.6771" fill="#ccccff"/>
<path transform="matrix(1.00006,0,0,-1.0001,4.2903597,47.357137)" stroke-width=".79701" stroke-linecap="butt" stroke-miterlimit="10" stroke-linejoin="miter" fill="none" stroke="#000000" d="M204.09389 11.33855V22.6771H215.43245V11.33855ZM215.43245 22.6771"/>
<path transform="matrix(1.00006,0,0,-1.0001,4.2903597,47.357137)" d="M204.09389 22.6771V34.01564H215.43245V22.6771ZM215.43245 34.01564" fill="#ccccff"/>
<path transform="matrix(1.00006,0,0,-1.0001,4.2903597,47.357137)" stroke-width=".79701" stroke-linecap="butt" stroke-miterlimit="10" stroke-linejoin="miter" fill="none" stroke="#000000" d="M204.09389 22.6771V34.01564H215.43245V22.6771ZM215.43245 34.01564"/>
<path transform="matrix(1.00006,0,0,-1.0001,4.2903597,47.357137)" d="M204.09389 34.01564V45.35419H215.43245V34.01564ZM215.43245 45.35419" fill="#ccccff"/>
<path transform="matrix(1.00006,0,0,-1.0001,4.2903597,47.357137)" stroke-width=".79701" stroke-linecap="butt" stroke-miterlimit="10" stroke-linejoin="miter" fill="none" stroke="#000000" d="M204.09389 34.01564V45.35419H215.43245V34.01564ZM215.43245 45.35419"/>
<path transform="matrix(1.00006,0,0,-1.0001,4.2903597,47.357137)" d="M215.43245 0V11.33855H226.771V0ZM226.771 11.33855" fill="#ccccff"/>
<path transform="matrix(1.00006,0,0,-1.0001,4.2903597,47.357137)" stroke-width=".79701" stroke-linecap="butt" stroke-miterlimit="10" stroke-linejoin="miter" fill="none" stroke="#000000" d="M215.43245 0V11.33855H226.771V0ZM226.771 11.33855"/>
<path transform="matrix(1.00006,0,0,-1.0001,4.2903597,47.357137)" d="M226.771 0V11.33855H238.10955V0ZM238.10955 11.33855" fill="#ccccff"/>
<path transform="matrix(1.00006,0,0,-1.0001,4.2903597,47.357137)" stroke-width=".79701" stroke-linecap="butt" stroke-miterlimit="10" stroke-linejoin="miter" fill="none" stroke="#000000" d="M226.771 0V11.33855H238.10955V0ZM238.10955 11.33855"/>
<path transform="matrix(1.00006,0,0,-1.0001,4.2903597,47.357137)" d="M238.10955 0V11.33855H249.44809V0ZM249.44809 11.33855" fill="#ccccff"/>
<path transform="matrix(1.00006,0,0,-1.0001,4.2903597,47.357137)" stroke-width=".79701" stroke-linecap="butt" stroke-miterlimit="10" stroke-linejoin="miter" fill="none" stroke="#000000" d="M238.10955 0V11.33855H249.44809V0ZM249.44809 11.33855"/>
<path transform="matrix(1.00006,0,0,-1.0001,4.2903597,47.357137)" d="M249.44809 0V11.33855H260.78666V0ZM260.78666 11.33855" fill="#ccccff"/>
<path transform="matrix(1.00006,0,0,-1.0001,4.2903597,47.357137)" stroke-width=".79701" stroke-linecap="butt" stroke-miterlimit="10" stroke-linejoin="miter" fill="none" stroke="#000000" d="M249.44809 0V11.33855H260.78666V0ZM260.78666 11.33855"/>
<path transform="matrix(1.00006,0,0,-1.0001,4.2903597,47.357137)" d="M260.78666 0V11.33855H272.1252V0ZM272.1252 11.33855" fill="#ccccff"/>
<path transform="matrix(1.00006,0,0,-1.0001,4.2903597,47.357137)" stroke-width=".79701" stroke-linecap="butt" stroke-miterlimit="10" stroke-linejoin="miter" fill="none" stroke="#000000" d="M260.78666 0V11.33855H272.1252V0ZM272.1252 11.33855"/>
<path transform="matrix(1.00006,0,0,-1.0001,4.2903597,47.357137)" d="M272.1252 0V11.33855H283.46376V0ZM283.46376 11.33855" fill="#ccccff"/>
<path transform="matrix(1.00006,0,0,-1.0001,4.2903597,47.357137)" stroke-width=".79701" stroke-linecap="butt" stroke-miterlimit="10" stroke-linejoin="miter" fill="none" stroke="#000000" d="M272.1252 0V11.33855H283.46376V0ZM283.46376 11.33855"/>
<path transform="matrix(1.00006,0,0,-1.0001,4.2903597,47.357137)" d="M283.46376 0V11.33855H294.80229V0ZM294.80229 11.33855" fill="#ccccff"/>
<path transform="matrix(1.00006,0,0,-1.0001,4.2903597,47.357137)" stroke-width=".79701" stroke-linecap="butt" stroke-miterlimit="10" stroke-linejoin="miter" fill="none" stroke="#000000" d="M283.46376 0V11.33855H294.80229V0ZM294.80229 11.33855"/>
<use data-text="C" xlink:href="#font_1_42" transform="matrix(9.963197,0,0,-9.963596,233.67209,62.09961)"/>
<use data-text="a" xlink:href="#font_1_28" transform="matrix(9.963197,0,0,-9.963596,240.86553,62.09961)"/>
<use data-text="s" xlink:href="#font_1_98" transform="matrix(9.963197,0,0,-9.963596,245.84712,62.09961)"/>
<use data-text="e" xlink:href="#font_1_50" transform="matrix(9.963197,0,0,-9.963596,249.77262,62.09961)"/>
<use data-text="4" xlink:href="#font_1_57" transform="matrix(9.963197,0,0,-9.963596,257.50407,62.09961)"/>
</svg>
