<svg xmlns="http://www.w3.org/2000/svg" xmlns:xlink="http://www.w3.org/1999/xlink" xmlns:inkscape="http://www.inkscape.org/namespaces/inkscape" version="1.1" width="271" height="59" viewBox="0 0 271 59">
<defs>
<path id="font_1_42" d="M.6649933 .23271179C.6649933 .24272156 .6649933 .24972534 .6519928 .24972534 .6409912 .24972534 .6409912 .24372864 .6399994 .23371887 .6319885 .09059143 .5249939 .008529663 .41600038 .008529663 .35499574 .008529663 .15899658 .042556764 .15899658 .34080506 .15899658 .64004519 .35398866 .67407229 .4149933 .67407229 .5239868 .67407229 .61299136 .58299258 .6329956 .4368744 .6349945 .42286683 .6349945 .41986085 .6489868 .41986085 .6649933 .41986085 .6649933 .42286683 .6649933 .44387818V.68107607C.6649933 .69807437 .6649933 .7050781 .6539917 .7050781 .6499939 .7050781 .6459961 .7050781 .6380005 .69306948L.58799746 .61901858C.5509949 .6550598 .5 .7050781 .4039917 .7050781 .21699524 .7050781 .055999757 .5459595 .055999757 .34179688 .055999757 .1346283 .21798706-.022460938 .4039917-.022460938 .5669861-.022460938 .6649933 .116622928 .6649933 .23271179Z"/>
<path id="font_1_28" d="M.48298646 .08912659V.14511109H.45799256V.08912659C.45799256 .03112793 .43299867 .025131226 .42199708 .025131226 .3889923 .025131226 .3849945 .070129398 .3849945 .07511902V.27508546C.3849945 .31707765 .3849945 .3560791 .34899903 .39312745 .30999757 .43223573 .2599945 .4482422 .21199036 .4482422 .12998963 .4482422 .06098938 .40115357 .06098938 .335083 .06098938 .30508424 .08099365 .28808595 .10699463 .28808595 .1349945 .28808595 .15299988 .30807496 .15299988 .33407594 .15299988 .3460846 .147995 .37908937 .101989749 .38008119 .1289978 .41519166 .17799378 .426239 .20999146 .426239 .25898744 .426239 .31599427 .38710023 .31599427 .29808045V.26107789C.2649994 .25808717 .19499207 .25508119 .13198853 .22509766 .056991579 .19110108 .03199768 .13911438 .03199768 .09512329 .03199768 .014251709 .1289978-.0107421879 .19198609-.0107421879 .2579956-.0107421879 .3039856 .029251099 .32299806 .07624817 .32699586 .036132814 .35398866-.005859375 .40098573-.005859375 .42199708-.005859375 .48298646 .008132935 .48298646 .08912659M.31599427 .14013672C.31599427 .04525757 .24398804 .011245728 .19898987 .011245728 .1499939 .011245728 .10899353 .04624939 .10899353 .09625244 .10899353 .15124512 .15098572 .23425293 .31599427 .24024964V.14013672Z"/>
<path id="font_1_98" d="M.3600006 .12823487C.3600006 .18122864 .32998658 .21122742 .31799317 .22323609 .2849884 .25523377 .24598694 .26322938 .20399475 .27124024 .147995 .28224183 .08099365 .29522706 .08099365 .35324098 .08099365 .38822938 .10699463 .42922975 .19299317 .42922975 .30299378 .42922975 .30799867 .3392334 .30999757 .30822755 .31098939 .2992401 .32199098 .2992401 .32199098 .2992401 .33499146 .2992401 .33499146 .30422975 .33499146 .32322694V.4242401C.33499146 .4412384 .33499146 .4482422 .32398988 .4482422 .31900025 .4482422 .31698609 .4482422 .3039856 .43623353 .30099488 .43223573 .29100038 .42323304 .2869873 .42022706 .24899292 .4482422 .20799256 .4482422 .19299317 .4482422 .070999149 .4482422 .032989503 .38124085 .032989503 .3252411 .032989503 .29023744 .04899597 .26223756 .07598877 .24023438 .10798645 .2142334 .13598633 .2082367 .20799256 .19422913 .22999573 .19021607 .31199647 .17422486 .31199647 .10221863 .31199647 .051223756 .2769928 .011245728 .19898987 .011245728 .114990238 .011245728 .07899475 .068222049 .05999756 .1532135 .056991579 .16621399 .055999757 .17021179 .04598999 .17021179 .032989503 .17021179 .032989503 .16322327 .032989503 .1452179V.013214111C.032989503-.003753662 .032989503-.0107421879 .04399109-.0107421879 .04899597-.0107421879 .049987794-.009750366 .068984989 .009246826 .070999149 .011245728 .070999149 .013214111 .08898926 .032226564 .1329956-.009750366 .17799378-.0107421879 .19898987-.0107421879 .31399537-.0107421879 .3600006 .05621338 .3600006 .1282196V.12823487Z"/>
<path id="font_1_50" d="M.4149933 .11933899C.4149933 .12934876 .40699769 .13134766 .4019928 .13134766 .3929901 .13134766 .3909912 .12535095 .3889923 .11734009 .35398866 .014251709 .2639923 .014251709 .2539978 .014251709 .20399475 .014251709 .1639862 .044281007 .14099121 .08131409 .11099243 .12934876 .11099243 .19540406 .11099243 .23144531H.3899994C.4119873 .23144531 .4149933 .23144531 .4149933 .2524414 .4149933 .35131837 .36099244 .4482422 .23599243 .4482422 .11999512 .4482422 .027999878 .34532167 .027999878 .22042847 .027999878 .08631897 .1329956-.0107421879 .24798584-.0107421879 .36999513-.0107421879 .4149933 .10032654 .4149933 .11933899M.34899903 .2524414H.11199951C.117996219 .40126039 .20199585 .426239 .23599243 .426239 .33898927 .426239 .34899903 .2913971 .34899903 .2524414Z"/>
<path id="font_1_82" d="M.4189911 0V.0309906H.3869934C.29699708 .0309906 .2939911 .041992189 .2939911 .07902527V.64012148C.2939911 .6640167 .2939911 .6660156 .2709961 .6660156 .20899964 .60227969 .12098694 .60227969 .08898926 .60227969V.57128909C.10899353 .57128909 .16799927 .57128909 .21998596 .5972748V.07902527C.21998596 .042999269 .21699524 .0309906 .1269989 .0309906H.09498596V0C.12998963 .0029907227 .21699524 .0029907227 .25698854 .0029907227 .29699708 .0029907227 .38398744 .0029907227 .4189911 0Z"/>
<path id="font_1_107" d="M.44898988 .17396546H.42399598C.4189911 .14398194 .4119873 .099990848 .4019928 .084991458 .394989 .07699585 .32899476 .07699585 .30699159 .07699585H.1269989L.23298645 .17996216C.3889923 .31803895 .44898988 .37210084 .44898988 .47216798 .44898988 .5860901 .35899354 .6660156 .23699951 .6660156 .12399292 .6660156 .049987794 .57411196 .049987794 .48516847 .049987794 .4291687 .099990848 .4291687 .102996829 .4291687 .11999512 .4291687 .15499878 .44117738 .15499878 .48217774 .15499878 .5081787 .13699341 .5341797 .101989749 .5341797 .09399414 .5341797 .09199524 .5341797 .08898926 .5331726 .11199951 .59806826 .1659851 .63500979 .22399903 .63500979 .31498719 .63500979 .35798646 .5541382 .35798646 .47216798 .35798646 .39196778 .30799867 .31297303 .25299073 .25097657L.06098938 .036987306C.049987794 .025985718 .049987794 .023986817 .049987794 0H.42099L.44898988 .17396546Z"/>
<path id="font_1_106" d="M.45700074 .17037964C.45700074 .252594 .3939972 .33088685 .2899933 .35191346 .37199403 .37893678 .42999269 .4490509 .42999269 .52809146 .42999269 .6100464 .34199525 .6660156 .24598694 .6660156 .14498902 .6660156 .068984989 .60606387 .068984989 .53009036 .068984989 .49710084 .09098816 .47808839 .11999512 .47808839 .15098572 .47808839 .17098999 .50009158 .17098999 .5290985 .17098999 .57910159 .12399292 .57910159 .10899353 .57910159 .13999939 .62802127 .20599365 .64100649 .24198914 .64100649 .2829895 .64100649 .33799745 .6190338 .33799745 .5290985 .33799745 .51708987 .33599855 .45906068 .30999757 .4149933 .27999879 .36691285 .24598694 .36390687 .22099304 .36291505 .21299744 .36190797 .18899536 .35990907 .18199158 .35990907 .17399597 .35890199 .16699219 .35791017 .16699219 .3479004 .16699219 .33691407 .17399597 .33691407 .19099427 .33691407H.23498535C.31698609 .33691407 .35398866 .2686615 .35398866 .17037964 .35398866 .034469606 .2849884 .0055389406 .24099732 .0055389406 .19799805 .0055389406 .12298584 .022491456 .08799744 .08137512 .12298584 .07637024 .1539917 .09837341 .1539917 .1363678 .1539917 .17237854 .1269989 .19238281 .09799194 .19238281 .07398987 .19238281 .041992189 .17837525 .041992189 .1343689 .041992189 .043441774 .1349945-.022460938 .24398804-.022460938 .3659973-.022460938 .45700074 .06838989 .45700074 .17037964Z"/>
<path id="font_1_57" d="M.47099305 .16503906V.19602967H.37098695V.6507721C.37098695 .6707611 .37098695 .6767578 .35499574 .6767578 .34599305 .6767578 .34298707 .6767578 .33499146 .6647644L.027999878 .19602967V.16503906H.2939911V.07800293C.2939911 .041992189 .2919922 .0309906 .21798706 .0309906H.19699097V0C.23799134 .0029907227 .2899933 .0029907227 .33198548 .0029907227 .37399293 .0029907227 .4269867 .0029907227 .46798707 0V.0309906H.44699098C.37298585 .0309906 .37098695 .041992189 .37098695 .07800293V.16503906H.47099305M.2999878 .19602967H.055999757L.2999878 .56881716V.19602967Z"/>
<path id="font_1_56" d="M.44898988 .20091248C.44898988 .31991578 .36698915 .41992188 .25898744 .41992188 .21099854 .41992188 .16799927 .4039154 .13198853 .36891175V.5641022C.1519928 .55778506 .18499756 .55078127 .21699524 .55078127 .33999635 .55078127 .4099884 .6418457 .4099884 .65493777 .4099884 .6609802 .40699769 .6660156 .3999939 .6660156 .3999939 .66607668 .39698792 .66607668 .3919983 .66308596 .37199403 .65408328 .32299806 .63378909 .2559967 .63378909 .21598816 .63409426 .16999817 .641098 .12298584 .6621094 .114990238 .6651001 .11099243 .6651001 .11099243 .6651001 .100997928 .66508486 .100997928 .657074 .100997928 .64108279V.3447113C.100997928 .3266449 .100997928 .31861878 .114990238 .31861878 .12199402 .31861878 .12399292 .32164 .12799073 .32765199 .13899231 .34371949 .17599488 .3979187 .25698854 .3979187 .30899049 .3979187 .33399964 .3517456 .34199525 .3336792 .35798646 .2965393 .3600006 .2574005 .3600006 .20721436 .3600006 .17218018 .3600006 .112197879 .33599855 .07032776 .31199647 .031448366 .2749939 .0055389406 .22898865 .0055389406 .1559906 .0055389406 .09899902 .05836487 .08198547 .1171875 .084991458 .11685181 .08799744 .115859989 .09899902 .115859989 .13198853 .115859989 .14898682 .14085388 .14898682 .16485596 .14898682 .18885803 .13198853 .21386719 .09899902 .21386719 .084991458 .21386719 .049987794 .2068634 .049987794 .16085816 .049987794 .07432556 .11898804-.022460938 .23098755-.022460938 .34700013-.022460938 .44898988 .07331848 .44898988 .20019531V.20091248Z"/>
</defs>
<path transform="matrix(1.0001,0,0,-1.00006,10.810577,44.20769)" d="M9.07089 4.81888C9.07089 7.16722 7.16722 9.07089 4.81888 9.07089 2.47054 9.07089 .56688 7.16722 .56688 4.81888 .56688 2.47054 2.47054 .56688 4.81888 .56688 7.16722 .56688 9.07089 2.47054 9.07089 4.81888ZM4.81888 4.81888" fill="#4dff4d"/>
<path transform="matrix(1.0001,0,0,-1.00006,10.810577,44.20769)" stroke-width=".79701" stroke-linecap="butt" stroke-miterlimit="10" stroke-linejoin="miter" fill="none" stroke="#000000" d="M9.07089 4.81888C9.07089 7.16722 7.16722 9.07089 4.81888 9.07089 2.47054 9.07089 .56688 7.16722 .56688 4.81888 .56688 2.47054 2.47054 .56688 4.81888 .56688 7.16722 .56688 9.07089 2.47054 9.07089 4.81888ZM4.81888 4.81888"/>
<path transform="matrix(1.0001,0,0,-1.00006,10.810577,44.20769)" d="M9.07089 14.4567C9.07089 16.80504 7.16722 18.70871 4.81888 18.70871 2.47054 18.70871 .56688 16.80504 .56688 14.4567 .56688 12.10835 2.47054 10.20468 4.81888 10.20468 7.16722 10.20468 9.07089 12.10835 9.07089 14.4567ZM4.81888 14.4567" fill="#4dff4d"/>
<path transform="matrix(1.0001,0,0,-1.00006,10.810577,44.20769)" stroke-width=".79701" stroke-linecap="butt" stroke-miterlimit="10" stroke-linejoin="miter" fill="none" stroke="#000000" d="M9.07089 14.4567C9.07089 16.80504 7.16722 18.70871 4.81888 18.70871 2.47054 18.70871 .56688 16.80504 .56688 14.4567 .56688 12.10835 2.47054 10.20468 4.81888 10.20468 7.16722 10.20468 9.07089 12.10835 9.07089 14.4567ZM4.81888 14.4567"/>
<path transform="matrix(1.0001,0,0,-1.00006,10.810577,44.20769)" d="M9.07089 24.0945C9.07089 26.44284 7.16722 28.34651 4.81888 28.34651 2.47054 28.34651 .56688 26.44284 .56688 24.0945 .56688 21.74617 2.47054 19.8425 4.81888 19.8425 7.16722 19.8425 9.07089 21.74617 9.07089 24.0945ZM4.81888 24.0945" fill="#4dff4d"/>
<path transform="matrix(1.0001,0,0,-1.00006,10.810577,44.20769)" stroke-width=".79701" stroke-linecap="butt" stroke-miterlimit="10" stroke-linejoin="miter" fill="none" stroke="#000000" d="M9.07089 24.0945C9.07089 26.44284 7.16722 28.34651 4.81888 28.34651 2.47054 28.34651 .56688 26.44284 .56688 24.0945 .56688 21.74617 2.47054 19.8425 4.81888 19.8425 7.16722 19.8425 9.07089 21.74617 9.07089 24.0945ZM4.81888 24.0945"/>
<use data-text="C" xlink:href="#font_1_42" transform="matrix(9.963596,0,0,-9.963197,1.2176209,57.248476)"/>
<use data-text="a" xlink:href="#font_1_28" transform="matrix(9.963596,0,0,-9.963197,8.411339,57.248476)"/>
<use data-text="s" xlink:href="#font_1_98" transform="matrix(9.963596,0,0,-9.963197,13.393143,57.248476)"/>
<use data-text="e" xlink:href="#font_1_50" transform="matrix(9.963596,0,0,-9.963197,17.318795,57.248476)"/>
<use data-text="1" xlink:href="#font_1_82" transform="matrix(9.963596,0,0,-9.963197,25.060509,57.248476)"/>
<path transform="matrix(1.0001,0,0,-1.00006,10.810577,44.20769)" d="M52.44102 4.81888C52.44102 7.16722 50.53735 9.07089 48.18901 9.07089 45.84068 9.07089 43.93701 7.16722 43.93701 4.81888 43.93701 2.47054 45.84068 .56688 48.18901 .56688 50.53735 .56688 52.44102 2.47054 52.44102 4.81888ZM48.18901 4.81888" fill="#4dff4d"/>
<path transform="matrix(1.0001,0,0,-1.00006,10.810577,44.20769)" stroke-width=".79701" stroke-linecap="butt" stroke-miterlimit="10" stroke-linejoin="miter" fill="none" stroke="#000000" d="M52.44102 4.81888C52.44102 7.16722 50.53735 9.07089 48.18901 9.07089 45.84068 9.07089 43.93701 7.16722 43.93701 4.81888 43.93701 2.47054 45.84068 .56688 48.18901 .56688 50.53735 .56688 52.44102 2.47054 52.44102 4.81888ZM48.18901 4.81888"/>
<path transform="matrix(1.0001,0,0,-1.00006,10.810577,44.20769)" d="M52.44102 14.4567C52.44102 16.80504 50.53735 18.70871 48.18901 18.70871 45.84068 18.70871 43.93701 16.80504 43.93701 14.4567 43.93701 12.10835 45.84068 10.20468 48.18901 10.20468 50.53735 10.20468 52.44102 12.10835 52.44102 14.4567ZM48.18901 14.4567" fill="#4dff4d"/>
<path transform="matrix(1.0001,0,0,-1.00006,10.810577,44.20769)" stroke-width=".79701" stroke-linecap="butt" stroke-miterlimit="10" stroke-linejoin="miter" fill="none" stroke="#000000" d="M52.44102 14.4567C52.44102 16.80504 50.53735 18.70871 48.18901 18.70871 45.84068 18.70871 43.93701 16.80504 43.93701 14.4567 43.93701 12.10835 45.84068 10.20468 48.18901 10.20468 50.53735 10.20468 52.44102 12.10835 52.44102 14.4567ZM48.18901 14.4567"/>
<path transform="matrix(1.0001,0,0,-1.00006,10.810577,44.20769)" d="M52.44102 24.0945C52.44102 26.44284 50.53735 28.34651 48.18901 28.34651 45.84068 28.34651 43.93701 26.44284 43.93701 24.0945 43.93701 21.74617 45.84068 19.8425 48.18901 19.8425 50.53735 19.8425 52.44102 21.74617 52.44102 24.0945ZM48.18901 24.0945" fill="#4dff4d"/>
<path transform="matrix(1.0001,0,0,-1.00006,10.810577,44.20769)" stroke-width=".79701" stroke-linecap="butt" stroke-miterlimit="10" stroke-linejoin="miter" fill="none" stroke="#000000" d="M52.44102 24.0945C52.44102 26.44284 50.53735 28.34651 48.18901 28.34651 45.84068 28.34651 43.93701 26.44284 43.93701 24.0945 43.93701 21.74617 45.84068 19.8425 48.18901 19.8425 50.53735 19.8425 52.44102 21.74617 52.44102 24.0945ZM48.18901 24.0945"/>
<path transform="matrix(1.0001,0,0,-1.00006,10.810577,44.20769)" d="M62.07884 4.81888C62.07884 7.16722 60.17517 9.07089 57.82683 9.07089 55.47849 9.07089 53.57481 7.16722 53.57481 4.81888 53.57481 2.47054 55.47849 .56688 57.82683 .56688 60.17517 .56688 62.07884 2.47054 62.07884 4.81888ZM57.82683 4.81888" fill="#4dff4d"/>
<path transform="matrix(1.0001,0,0,-1.00006,10.810577,44.20769)" stroke-width=".79701" stroke-linecap="butt" stroke-miterlimit="10" stroke-linejoin="miter" fill="none" stroke="#000000" d="M62.07884 4.81888C62.07884 7.16722 60.17517 9.07089 57.82683 9.07089 55.47849 9.07089 53.57481 7.16722 53.57481 4.81888 53.57481 2.47054 55.47849 .56688 57.82683 .56688 60.17517 .56688 62.07884 2.47054 62.07884 4.81888ZM57.82683 4.81888"/>
<path transform="matrix(1.0001,0,0,-1.00006,10.810577,44.20769)" d="M62.07884 14.4567C62.07884 16.80504 60.17517 18.70871 57.82683 18.70871 55.47849 18.70871 53.57481 16.80504 53.57481 14.4567 53.57481 12.10835 55.47849 10.20468 57.82683 10.20468 60.17517 10.20468 62.07884 12.10835 62.07884 14.4567ZM57.82683 14.4567" fill="#4dff4d"/>
<path transform="matrix(1.0001,0,0,-1.00006,10.810577,44.20769)" stroke-width=".79701" stroke-linecap="butt" stroke-miterlimit="10" stroke-linejoin="miter" fill="none" stroke="#000000" d="M62.07884 14.4567C62.07884 16.80504 60.17517 18.70871 57.82683 18.70871 55.47849 18.70871 53.57481 16.80504 53.57481 14.4567 53.57481 12.10835 55.47849 10.20468 57.82683 10.20468 60.17517 10.20468 62.07884 12.10835 62.07884 14.4567ZM57.82683 14.4567"/>
<path transform="matrix(1.0001,0,0,-1.00006,10.810577,44.20769)" d="M62.07884 24.0945C62.07884 26.44284 60.17517 28.34651 57.82683 28.34651 55.47849 28.34651 53.57481 26.44284 53.57481 24.0945 53.57481 21.74617 55.47849 19.8425 57.82683 19.8425 60.17517 19.8425 62.07884 21.74617 62.07884 24.0945ZM57.82683 24.0945" fill="#4dff4d"/>
<path transform="matrix(1.0001,0,0,-1.00006,10.810577,44.20769)" stroke-width=".79701" stroke-linecap="butt" stroke-miterlimit="10" stroke-linejoin="miter" fill="none" stroke="#000000" d="M62.07884 24.0945C62.07884 26.44284 60.17517 28.34651 57.82683 28.34651 55.47849 28.34651 53.57481 26.44284 53.57481 24.0945 53.57481 21.74617 55.47849 19.8425 57.82683 19.8425 60.17517 19.8425 62.07884 21.74617 62.07884 24.0945ZM57.82683 24.0945"/>
<use data-text="C" xlink:href="#font_1_42" transform="matrix(9.963596,0,0,-9.963197,49.411439,57.248476)"/>
<use data-text="a" xlink:href="#font_1_28" transform="matrix(9.963596,0,0,-9.963197,56.605157,57.248476)"/>
<use data-text="s" xlink:href="#font_1_98" transform="matrix(9.963596,0,0,-9.963197,61.58696,57.248476)"/>
<use data-text="e" xlink:href="#font_1_50" transform="matrix(9.963596,0,0,-9.963197,65.51261,57.248476)"/>
<use data-text="2" xlink:href="#font_1_107" transform="matrix(9.963596,0,0,-9.963197,73.254329,57.248476)"/>
<path transform="matrix(1.0001,0,0,-1.00006,10.810577,44.20769)" d="M101.59393 4.81888C101.59393 7.16722 99.69026 9.07089 97.34192 9.07089 94.99358 9.07089 93.08992 7.16722 93.08992 4.81888 93.08992 2.47054 94.99358 .56688 97.34192 .56688 99.69026 .56688 101.59393 2.47054 101.59393 4.81888ZM97.34192 4.81888" fill="#4dff4d"/>
<path transform="matrix(1.0001,0,0,-1.00006,10.810577,44.20769)" stroke-width=".79701" stroke-linecap="butt" stroke-miterlimit="10" stroke-linejoin="miter" fill="none" stroke="#000000" d="M101.59393 4.81888C101.59393 7.16722 99.69026 9.07089 97.34192 9.07089 94.99358 9.07089 93.08992 7.16722 93.08992 4.81888 93.08992 2.47054 94.99358 .56688 97.34192 .56688 99.69026 .56688 101.59393 2.47054 101.59393 4.81888ZM97.34192 4.81888"/>
<path transform="matrix(1.0001,0,0,-1.00006,10.810577,44.20769)" d="M101.59393 14.4567C101.59393 16.80504 99.69026 18.70871 97.34192 18.70871 94.99358 18.70871 93.08992 16.80504 93.08992 14.4567 93.08992 12.10835 94.99358 10.20468 97.34192 10.20468 99.69026 10.20468 101.59393 12.10835 101.59393 14.4567ZM97.34192 14.4567" fill="#4dff4d"/>
<path transform="matrix(1.0001,0,0,-1.00006,10.810577,44.20769)" stroke-width=".79701" stroke-linecap="butt" stroke-miterlimit="10" stroke-linejoin="miter" fill="none" stroke="#000000" d="M101.59393 14.4567C101.59393 16.80504 99.69026 18.70871 97.34192 18.70871 94.99358 18.70871 93.08992 16.80504 93.08992 14.4567 93.08992 12.10835 94.99358 10.20468 97.34192 10.20468 99.69026 10.20468 101.59393 12.10835 101.59393 14.4567ZM97.34192 14.4567"/>
<path transform="matrix(1.0001,0,0,-1.00006,10.810577,44.20769)" d="M101.59393 24.0945C101.59393 26.44284 99.69026 28.34651 97.34192 28.34651 94.99358 28.34651 93.08992 26.44284 93.08992 24.0945 93.08992 21.74617 94.99358 19.8425 97.34192 19.8425 99.69026 19.8425 101.59393 21.74617 101.59393 24.0945ZM97.34192 24.0945" fill="#4dff4d"/>
<path transform="matrix(1.0001,0,0,-1.00006,10.810577,44.20769)" stroke-width=".79701" stroke-linecap="butt" stroke-miterlimit="10" stroke-linejoin="miter" fill="none" stroke="#000000" d="M101.59393 24.0945C101.59393 26.44284 99.69026 28.34651 97.34192 28.34651 94.99358 28.34651 93.08992 26.44284 93.08992 24.0945 93.08992 21.74617 94.99358 19.8425 97.34192 19.8425 99.69026 19.8425 101.59393 21.74617 101.59393 24.0945ZM97.34192 24.0945"/>
<path transform="matrix(1.0001,0,0,-1.00006,10.810577,44.20769)" d="M111.23175 4.81888C111.23175 7.16722 109.32808 9.07089 106.97974 9.07089 104.6314 9.07089 102.72772 7.16722 102.72772 4.81888 102.72772 2.47054 104.6314 .56688 106.97974 .56688 109.32808 .56688 111.23175 2.47054 111.23175 4.81888ZM106.97974 4.81888" fill="#4dff4d"/>
<path transform="matrix(1.0001,0,0,-1.00006,10.810577,44.20769)" stroke-width=".79701" stroke-linecap="butt" stroke-miterlimit="10" stroke-linejoin="miter" fill="none" stroke="#000000" d="M111.23175 4.81888C111.23175 7.16722 109.32808 9.07089 106.97974 9.07089 104.6314 9.07089 102.72772 7.16722 102.72772 4.81888 102.72772 2.47054 104.6314 .56688 106.97974 .56688 109.32808 .56688 111.23175 2.47054 111.23175 4.81888ZM106.97974 4.81888"/>
<path transform="matrix(1.0001,0,0,-1.00006,10.810577,44.20769)" d="M111.23175 14.4567C111.23175 16.80504 109.32808 18.70871 106.97974 18.70871 104.6314 18.70871 102.72772 16.80504 102.72772 14.4567 102.72772 12.10835 104.6314 10.20468 106.97974 10.20468 109.32808 10.20468 111.23175 12.10835 111.23175 14.4567ZM106.97974 14.4567" fill="#4dff4d"/>
<path transform="matrix(1.0001,0,0,-1.00006,10.810577,44.20769)" stroke-width=".79701" stroke-linecap="butt" stroke-miterlimit="10" stroke-linejoin="miter" fill="none" stroke="#000000" d="M111.23175 14.4567C111.23175 16.80504 109.32808 18.70871 106.97974 18.70871 104.6314 18.70871 102.72772 16.80504 102.72772 14.4567 102.72772 12.10835 104.6314 10.20468 106.97974 10.20468 109.32808 10.20468 111.23175 12.10835 111.23175 14.4567ZM106.97974 14.4567"/>
<path transform="matrix(1.0001,0,0,-1.00006,10.810577,44.20769)" d="M111.23175 24.0945C111.23175 26.44284 109.32808 28.34651 106.97974 28.34651 104.6314 28.34651 102.72772 26.44284 102.72772 24.0945 102.72772 21.74617 104.6314 19.8425 106.97974 19.8425 109.32808 19.8425 111.23175 21.74617 111.23175 24.0945ZM106.97974 24.0945" fill="#4dff4d"/>
<path transform="matrix(1.0001,0,0,-1.00006,10.810577,44.20769)" stroke-width=".79701" stroke-linecap="butt" stroke-miterlimit="10" stroke-linejoin="miter" fill="none" stroke="#000000" d="M111.23175 24.0945C111.23175 26.44284 109.32808 28.34651 106.97974 28.34651 104.6314 28.34651 102.72772 26.44284 102.72772 24.0945 102.72772 21.74617 104.6314 19.8425 106.97974 19.8425 109.32808 19.8425 111.23175 21.74617 111.23175 24.0945ZM106.97974 24.0945"/>
<path transform="matrix(1.0001,0,0,-1.00006,10.810577,44.20769)" d="M120.86955 4.81888C120.86955 7.16722 118.96588 9.07089 116.61754 9.07089 114.26921 9.07089 112.36554 7.16722 112.36554 4.81888 112.36554 2.47054 114.26921 .56688 116.61754 .56688 118.96588 .56688 120.86955 2.47054 120.86955 4.81888ZM116.61754 4.81888" fill="#4dff4d"/>
<path transform="matrix(1.0001,0,0,-1.00006,10.810577,44.20769)" stroke-width=".79701" stroke-linecap="butt" stroke-miterlimit="10" stroke-linejoin="miter" fill="none" stroke="#000000" d="M120.86955 4.81888C120.86955 7.16722 118.96588 9.07089 116.61754 9.07089 114.26921 9.07089 112.36554 7.16722 112.36554 4.81888 112.36554 2.47054 114.26921 .56688 116.61754 .56688 118.96588 .56688 120.86955 2.47054 120.86955 4.81888ZM116.61754 4.81888"/>
<path transform="matrix(1.0001,0,0,-1.00006,10.810577,44.20769)" d="M120.86955 14.4567C120.86955 16.80504 118.96588 18.70871 116.61754 18.70871 114.26921 18.70871 112.36554 16.80504 112.36554 14.4567 112.36554 12.10835 114.26921 10.20468 116.61754 10.20468 118.96588 10.20468 120.86955 12.10835 120.86955 14.4567ZM116.61754 14.4567" fill="#4dff4d"/>
<path transform="matrix(1.0001,0,0,-1.00006,10.810577,44.20769)" stroke-width=".79701" stroke-linecap="butt" stroke-miterlimit="10" stroke-linejoin="miter" fill="none" stroke="#000000" d="M120.86955 14.4567C120.86955 16.80504 118.96588 18.70871 116.61754 18.70871 114.26921 18.70871 112.36554 16.80504 112.36554 14.4567 112.36554 12.10835 114.26921 10.20468 116.61754 10.20468 118.96588 10.20468 120.86955 12.10835 120.86955 14.4567ZM116.61754 14.4567"/>
<path transform="matrix(1.0001,0,0,-1.00006,10.810577,44.20769)" d="M120.86955 24.0945C120.86955 26.44284 118.96588 28.34651 116.61754 28.34651 114.26921 28.34651 112.36554 26.44284 112.36554 24.0945 112.36554 21.74617 114.26921 19.8425 116.61754 19.8425 118.96588 19.8425 120.86955 21.74617 120.86955 24.0945ZM116.61754 24.0945" fill="#4dff4d"/>
<path transform="matrix(1.0001,0,0,-1.00006,10.810577,44.20769)" stroke-width=".79701" stroke-linecap="butt" stroke-miterlimit="10" stroke-linejoin="miter" fill="none" stroke="#000000" d="M120.86955 24.0945C120.86955 26.44284 118.96588 28.34651 116.61754 28.34651 114.26921 28.34651 112.36554 26.44284 112.36554 24.0945 112.36554 21.74617 114.26921 19.8425 116.61754 19.8425 118.96588 19.8425 120.86955 21.74617 120.86955 24.0945ZM116.61754 24.0945"/>
<use data-text="C" xlink:href="#font_1_42" transform="matrix(9.963596,0,0,-9.963197,103.38884,57.248476)"/>
<use data-text="a" xlink:href="#font_1_28" transform="matrix(9.963596,0,0,-9.963197,110.58256,57.248476)"/>
<use data-text="s" xlink:href="#font_1_98" transform="matrix(9.963596,0,0,-9.963197,115.56436,57.248476)"/>
<use data-text="e" xlink:href="#font_1_50" transform="matrix(9.963596,0,0,-9.963197,119.49001,57.248476)"/>
<use data-text="3" xlink:href="#font_1_106" transform="matrix(9.963596,0,0,-9.963197,127.23173,57.248476)"/>
<path transform="matrix(1.0001,0,0,-1.00006,10.810577,44.20769)" stroke-width=".3985" stroke-linecap="butt" stroke-dasharray="2.98883,2.98883" stroke-miterlimit="10" stroke-linejoin="miter" fill="none" stroke="#7f807f" d="M139.74825-3.85504V42.4063H189.8648V-3.85504ZM189.8648 42.4063"/>
<use data-text="C" xlink:href="#font_1_42" transform="matrix(9.963596,0,0,-9.963197,159.29343,57.248476)"/>
<use data-text="a" xlink:href="#font_1_28" transform="matrix(9.963596,0,0,-9.963197,166.48715,57.248476)"/>
<use data-text="s" xlink:href="#font_1_98" transform="matrix(9.963596,0,0,-9.963197,171.46895,57.248476)"/>
<use data-text="e" xlink:href="#font_1_50" transform="matrix(9.963596,0,0,-9.963197,175.39459,57.248476)"/>
<use data-text="4" xlink:href="#font_1_57" transform="matrix(9.963596,0,0,-9.963197,183.13632,57.248476)"/>
<path transform="matrix(1.0001,0,0,-1.00006,10.810577,44.20769)" stroke-width=".3985" stroke-linecap="butt" stroke-dasharray="2.98883,2.98883" stroke-miterlimit="10" stroke-linejoin="miter" fill="none" stroke="#7f807f" d="M198.53897-3.85504V42.4063H258.29335V-3.85504ZM258.29335 42.4063"/>
<use data-text="C" xlink:href="#font_1_42" transform="matrix(9.963596,0,0,-9.963197,222.90879,57.248476)"/>
<use data-text="a" xlink:href="#font_1_28" transform="matrix(9.963596,0,0,-9.963197,230.10251,57.248476)"/>
<use data-text="s" xlink:href="#font_1_98" transform="matrix(9.963596,0,0,-9.963197,235.0843,57.248476)"/>
<use data-text="e" xlink:href="#font_1_50" transform="matrix(9.963596,0,0,-9.963197,239.00995,57.248476)"/>
<use data-text="5" xlink:href="#font_1_56" transform="matrix(9.963596,0,0,-9.963197,246.75168,57.248476)"/>
</svg>
