<svg xmlns="http://www.w3.org/2000/svg" xmlns:xlink="http://www.w3.org/1999/xlink" xmlns:inkscape="http://www.inkscape.org/namespaces/inkscape" version="1.1" width="97" height="97" viewBox="0 0 97 97">
<path transform="matrix(1,0,0,-1.00006,33.184999,77.53875)" stroke-width=".19925" stroke-linecap="butt" stroke-miterlimit="10" stroke-linejoin="miter" fill="none" stroke="#e8e8e8" d="M-28.34679-14.17339H56.69359M-28.34679 0H56.69359M-28.34679 14.17339H56.69359M-28.34679 28.34679H56.69359M-28.34679 42.52019H56.69359M-28.34679 56.69359H56.69359M-28.34679 70.85703H56.69359M-28.34679-14.17339V70.86697M-14.17339-14.17339V70.86697M0-14.17339V70.86697M14.17339-14.17339V70.86697M28.34679-14.17339V70.86697M42.52019-14.17339V70.86697M56.68362-14.17339V70.86697M56.69359 70.86697"/>
<path transform="matrix(1,0,0,-1.00006,33.184999,77.53875)" stroke-width=".79701" stroke-linecap="butt" stroke-miterlimit="10" stroke-linejoin="miter" fill="none" stroke="#b9b9b9" d="M-31.89012 0H61.65547"/>
<path transform="matrix(1,0,0,-1.00006,94.84047,77.53875)" stroke-width=".6376" stroke-linecap="round" stroke-linejoin="round" fill="none" stroke="#b9b9b9" d="M-1.55415 2.0722C-1.42464 1.29512 0 .1295 .38852 0 0-.1295-1.42464-1.29512-1.55415-2.0722"/>
<path transform="matrix(1,0,0,-1.00006,33.184999,77.53875)" stroke-width=".79701" stroke-linecap="butt" stroke-miterlimit="10" stroke-linejoin="miter" fill="none" stroke="#b9b9b9" d="M0-17.71672V75.82887"/>
<path transform="matrix(0,-1.00006,-1,-0,33.184999,1.7053299)" stroke-width=".6376" stroke-linecap="round" stroke-linejoin="round" fill="none" stroke="#b9b9b9" d="M-1.55415 2.0722C-1.42464 1.29512 0 .1295 .38852 0 0-.1295-1.42464-1.29512-1.55415-2.0722"/>
<path transform="matrix(1,0,0,-1.00006,33.184999,77.53875)" stroke-width="1.19553" stroke-linecap="butt" stroke-miterlimit="10" stroke-linejoin="miter" fill="none" stroke="#0000ff" d="M-28.34679 0 56.69359 42.52019"/>
<path transform="matrix(1,0,0,-1.00006,33.184999,77.53875)" d="M1.69366 14.17339C1.69366 15.10878 .93538 15.86705 0 15.86705-.93538 15.86705-1.69366 15.10878-1.69366 14.17339-1.69366 13.23799-.93538 12.47972 0 12.47972 .93538 12.47972 1.69366 13.23799 1.69366 14.17339ZM0 14.17339"/>
<path transform="matrix(1,0,0,-1.00006,33.184999,77.53875)" d="M30.04045 28.34679C30.04045 29.28218 29.28218 30.04045 28.34679 30.04045 27.41139 30.04045 26.65312 29.28218 26.65312 28.34679 26.65312 27.41139 27.41139 26.65312 28.34679 26.65312 29.28218 26.65312 30.04045 27.41139 30.04045 28.34679ZM28.34679 28.34679"/>
<path transform="matrix(1,0,0,-1.00006,33.184999,77.53875)" d="M58.38725 42.52019C58.38725 43.45558 57.62897 44.21385 56.69359 44.21385 55.7582 44.21385 54.99991 43.45558 54.99991 42.52019 54.99991 41.5848 55.7582 40.82652 56.69359 40.82652 57.62897 40.82652 58.38725 41.5848 58.38725 42.52019ZM56.69359 42.52019"/>
</svg>
