<svg xmlns="http://www.w3.org/2000/svg" xmlns:xlink="http://www.w3.org/1999/xlink" xmlns:inkscape="http://www.inkscape.org/namespaces/inkscape" version="1.1" width="207" height="207" viewBox="0 0 207 207">
<defs>
<path id="font_1_2" d="M.21299744 .3996582H.30799867C.32598878 .3996582 .33799745 .3996582 .33799745 .41766358 .33799745 .43066407 .32798768 .43066407 .30999757 .43066407H.22099304L.2619934 .59646609C.2619934 .6124573 .24899292 .62545779 .23098755 .62545779 .19898987 .62545779 .19099427 .59646609 .18899536 .5864868L.14898682 .43066407H.054992677C.035995485 .43066407 .023986817 .43066407 .023986817 .4126587 .023986817 .3996582 .034988405 .3996582 .052993776 .3996582H.14199829L.07398987 .12808228C.06599426 .09811401 .06599426 .09613037 .06599426 .08215332 .06599426 .023239136 .11099243-.0107421879 .16299439-.0107421879 .2669983-.0107421879 .32598878 .1330719 .32598878 .14305115 .32598878 .14804077 .32299806 .1550293 .31298829 .1550293 .30299378 .1550293 .3019867 .15203858 .29499818 .1350708 .2639923 .06317139 .21398926 .014251709 .16499329 .014251709 .14498902 .014251709 .1329956 .027236939 .1329956 .060180665 .1329956 .08215332 .13598633 .09413147 .13999939 .10910034L.21299744 .3996582Z"/>
<path id="font_1_1" d="M.39698792 .37402345C.35398866 .37001039 .34999085 .3360138 .34999085 .32901 .34999085 .31201173 .36299134 .29901124 .38198854 .29901124 .4099884 .29901124 .42900086 .32202149 .42900086 .355011 .42900086 .40527345 .37998963 .4423828 .30599977 .4423828 .17199707 .4423828 .13398743 .3420105 .13398743 .2960205 .13398743 .25810243 .15299988 .23814392 .1659851 .22616577 .18598938 .2071991 .21299744 .20121765 .24899292 .19422913 .2939911 .1852417 .3039856 .18325806 .32199098 .17027283 .33799745 .15830994 .34700013 .14231873 .34700013 .12130737 .34700013 .0953064 .32299806 .014251709 .20199585 .014251709 .1789856 .014251709 .10899353 .01725769 .08699036 .063308719 .13699341 .063308719 .14698792 .10331726 .14698792 .11730957 .14698792 .14730835 .11999512 .15332031 .10899353 .15332031 .09098816 .15332031 .052993776 .13931275 .052993776 .08731079 .052993776 .025268555 .115997318-.0107421879 .20098877-.0107421879 .36898805-.0107421879 .4059906 .11231995 .4059906 .15530396 .4059906 .1932373 .3849945 .21717835 .37298585 .2291565 .34700013 .25610353 .31498719 .26208497 .27999879 .2690735 .2679901 .2720642 .24598694 .276062 .24299622 .27705384 .20999146 .28404237 .19198609 .3040161 .19198609 .32901 .19198609 .3400116 .19898987 .37200929 .22698975 .3941803 .25498963 .41636659 .29299928 .41737367 .30599977 .41737367 .34098817 .41737367 .38198854 .40628053 .39698792 .37402345Z"/>
<path id="font_2_64" d="M.31399537 .18101502V.24902344H.019989014V.18101502H.31399537Z"/>
<path id="font_2_107" d="M.5049896 .18203736H.47099305C.46798707 .16001892 .45799256 .100997928 .44499208 .09098816 .43699647 .084991458 .3600006 .084991458 .34599305 .084991458H.1619873C.2669983 .17803955 .3019867 .20603943 .3619995 .25306703 .43598939 .312088 .5049896 .374115 .5049896 .46914674 .5049896 .5900879 .39898683 .6640625 .2709961 .6640625 .14698792 .6640625 .06298828 .57710269 .06298828 .4851532 .06298828 .43414308 .10598755 .42915345 .115997318 .42915345 .13999939 .42915345 .16899109 .44615174 .16899109 .48214723 .16899109 .5001526 .1619873 .53515627 .10998535 .53515627 .14099121 .6060791 .20899964 .62805178 .2559967 .62805178 .35598756 .62805178 .4079895 .5501404 .4079895 .46914674 .4079895 .38212586 .34599305 .3130951 .31399537 .27708436L.07299805 .038986207C.06298828 .02999878 .06298828 .027999878 .06298828 0H.47499085L.5049896 .18203736Z"/>
<path id="font_2_82" d="M.47299195 0V.035995485H.43499757C.33499146 .035995485 .33499146 .048980714 .33499146 .081970218V.6357422C.33499146 .66304019 .33299256 .6640625 .30499269 .6640625 .24099732 .6007385 .1499939 .59973147 .10899353 .59973147V.5644531C.1329956 .5644531 .19898987 .5644531 .2539978 .592453V.08203125C.2539978 .04899597 .2539978 .035995485 .1539917 .035995485H.115997318V0L.2939911 .0039978029 .47299195 0Z"/>
<path id="font_2_106" d="M.5139923 .1733551C.5139923 .2513275 .44999696 .32929994 .33999635 .35229493 .44499208 .39024354 .48298646 .4650879 .48298646 .5260773 .48298646 .60505679 .3919983 .6640625 .2809906 .6640625 .16999817 .6640625 .084991458 .61006167 .084991458 .5300751 .084991458 .49606324 .10699463 .47706605 .13699341 .47706605 .16799927 .47706605 .18798828 .5000763 .18798828 .5280762 .18798828 .5570679 .16799927 .57806399 .13699341 .5800781 .17199707 .62405398 .24099732 .63505557 .27799989 .63505557 .32299806 .63505557 .38598634 .6130676 .38598634 .5260773 .38598634 .48406983 .37199403 .43814088 .34599305 .4072113 .31298829 .36927796 .2849884 .3672943 .23498535 .36428834 .20999146 .3623047 .20799256 .3623047 .20298767 .3612976 .20298767 .3612976 .19299317 .3592987 .19299317 .34829713 .19299317 .33428956 .20199585 .33428956 .21899414 .33428956H.272995C.35099793 .33428956 .40699769 .2803192 .40699769 .1733551 .40699769 .04940796 .33499146 .012466431 .2769928 .012466431 .23699951 .012466431 .14898682 .0234375 .10699463 .082351688 .1539917 .084350589 .16499329 .11735535 .16499329 .13835144 .16499329 .17034912 .14099121 .19335938 .10998535 .19335938 .08198547 .19335938 .053985597 .17634583 .053985597 .13534546 .053985597 .041412355 .1579895-.01953125 .2789917-.01953125 .41799928-.01953125 .5139923 .07336426 .5139923 .1733551Z"/>
<path id="font_2_57" d="M.5289917 .1640625V.20005799H.41799928V.6458435C.41799928 .66682437 .41799928 .6738281 .3959961 .6738281 .38398744 .6738281 .37998963 .6738281 .36999513 .6598358L.038986207 .20005799V.1640625H.33299256V.08201599C.33299256 .04800415 .33299256 .035995485 .2519989 .035995485H.22499085V0L.375 .0039978029 .526001 0V.035995485H.49899293C.41799928 .035995485 .41799928 .04800415 .41799928 .08201599V.1640625H.5289917M.33999635 .20005799H.07598877L.33999635 .5658722V.20005799Z"/>
<path id="font_2_56" d="M.5049896 .20095825C.5049896 .31396485 .4189911 .41796876 .29499818 .41796876 .25099183 .41796876 .19898987 .40696717 .15499878 .36895753V.5579071C.20599365 .5449219 .23599243 .5449219 .2519989 .5449219 .38398744 .5449219 .46199037 .6349182 .46199037 .6499176 .46199037 .6610565 .45498658 .6640625 .44999696 .6640625 .44999696 .6640625 .44599916 .6640625 .44198609 .6610565 .41799928 .65205386 .36499024 .63204959 .29100038 .63204959 .2630005 .63204959 .20999146 .63404849 .14498902 .6590576 .1349945 .6640625 .13198853 .6640625 .13198853 .6640625 .11898804 .6640625 .11898804 .6530609 .11898804 .63705447V.34204103C.11898804 .32507325 .11898804 .3130951 .1349945 .3130951 .14399719 .3130951 .14498902 .31507875 .15499878 .32707215 .19799805 .38197328 .25898744 .3899536 .2939911 .3899536 .35398866 .3899536 .3809967 .34204103 .38598634 .33406068 .4039917 .30110169 .4099884 .26316834 .4099884 .20524597 .4099884 .17524719 .4099884 .116256717 .37998963 .07234192 .35499574 .03640747 .31199647 .012466431 .2630005 .012466431 .19799805 .012466431 .1309967 .04838562 .10598755 .11425781 .14399719 .11125183 .16299439 .13624573 .16299439 .16325379 .16299439 .20625305 .12599182 .21424866 .11299133 .21424866 .11299133 .21424866 .06298828 .21424866 .06298828 .1602478 .06298828 .07034302 .14498902-.01953125 .2649994-.01953125 .3929901-.019744873 .5049896 .07525635 .5049896 .20124817V.20095825Z"/>
<path id="font_2_101" d="M.5139923 .20445252C.5139923 .33145143 .41299439 .42546083 .29599 .42546083 .21598816 .42546083 .17199707 .37245179 .1499939 .3274536 .1499939 .40945436 .15699768 .48303224 .19499207 .543869 .22898865 .5978699 .2829895 .63505557 .34700013 .63505557 .3769989 .63505557 .4169922 .62701418 .43699647 .5998688 .4119873 .5978699 .3909912 .5808716 .3909912 .5518799 .3909912 .5268707 .4079895 .5048828 .43798829 .5048828 .46798707 .5048828 .48599244 .5248718 .48599244 .5538788 .48599244 .6119385 .44400025 .6640625 .34498597 .6640625 .20098877 .6640625 .053985597 .5318756 .053985597 .3174591 .053985597 .05845642 .17599488-.01953125 .28599549-.01953125 .4079895-.01953125 .5139923 .07345581 .5139923 .20445252M.41799928 .20445252C.41799928 .14746094 .41799928 .10545349 .3909912 .066467288 .36698915 .031463624 .33499146 .012466431 .28599549 .012466431 .23599243 .012466431 .19699097 .04145813 .17599488 .08546448 .16099549 .115448 .15299988 .16545105 .15299988 .22544861 .15299988 .32244874 .21099854 .39746095 .29100038 .39746095 .33699037 .39746095 .36799623 .37945558 .3929901 .342453 .4169922 .30445863 .41799928 .26245118 .41799928 .20445252Z"/>
<path id="font_2_100" d="M.54499819 .6435852H.2829895C.24299622 .6435852 .23199463 .6445923 .19599915 .6476135 .14399719 .6516266 .14199829 .65867617 .13899231 .67578127H.10499573L.069992069 .46173097H.10398865C.10598755 .47669984 .115997318 .54260256 .13198853 .55259707 .13999939 .55859377 .22099304 .55859377 .23599243 .55859377H.45399476L.34999085 .42678834C.21899414 .25505067 .20698548 .09628296 .20698548 .037368776 .20698548 .026397706 .20698548-.01953125 .2539978-.01953125 .3019867-.01953125 .3019867 .025390625 .3019867 .038375856V.078308109C.3019867 .27201844 .34199525 .36088563 .3849945 .41479493L.5349884 .6035919C.54499819 .6155853 .54499819 .6175842 .54499819 .6435852Z"/>
<path id="font_2_51" d="M.5139923 .16905213C.5139923 .23504639 .47499085 .2910614 .4169922 .32505799L.35499574 .36105348C.43299867 .39904786 .48298646 .44606019 .48298646 .5150604 .48298646 .61206057 .38198854 .6640625 .2849884 .6640625 .1749878 .6640625 .084991458 .5920563 .084991458 .49705506 .084991458 .45005799 .10699463 .4160614 .125 .39605714 .14299011 .37506105 .1499939 .37104798 .20899964 .33605958 .15299988 .31245423 .053985597 .25846864 .053985597 .15345764 .053985597 .04246521 .16899109-.01953125 .2829895-.01953125 .4099884-.01953125 .5139923 .061462404 .5139923 .16946411V.16905213M.42999269 .51545718C.42999269 .4264679 .32398988 .38145448 .32398988 .38145448 .32398988 .38145448 .31999208 .38246156 .31298829 .38645936L.19198609 .45646668C.1659851 .4711609 .13798523 .49813844 .13798523 .53512576 .13798523 .5980835 .21099854 .63505557 .2829895 .63505557 .36099244 .63505557 .42999269 .5860901 .42999269 .5151367V.51545718M.45399476 .13438416C.45399476 .059432985 .37098695 .012466431 .2849884 .012466431 .19299317 .011993408 .11399841 .070999149 .11399841 .15299988 .11399841 .22698975 .16899109 .28399659 .24099732 .31698609 .29699708 .2849884 .29899598 .2849884 .37799073 .23799134 .4039917 .22299195 .45399476 .19299317 .45399476 .13398743V.13438416Z"/>
<path id="font_2_121" d="M.5159912 .31925965C.5159912 .42918397 .5029907 .50813296 .45700074 .5780945 .42599488 .62405398 .3639984 .6640625 .28399659 .6640625 .051986696 .6640625 .051986696 .39120484 .051986696 .31925965 .051986696 .2472992 .051986696-.01953125 .28399659-.01953125 .5159912-.01953125 .5159912 .2472992 .5159912 .31925965M.4249878 .33224488C.4249878 .25830079 .4249878 .18434143 .4119873 .12138367 .3919983 .030441285 .32398988 .008468628 .28399659 .008468628 .23799134 .008468628 .1769867 .035446168 .15699768 .117385867 .14299011 .17634583 .14299011 .25830079 .14299011 .33224488 .14299011 .40519715 .14299011 .4811554 .1579895 .53611758 .1789856 .6150665 .24299622 .63604739 .28399659 .63604739 .33799745 .63604739 .3899994 .6030731 .4079895 .545105 .42399598 .4911499 .4249878 .41918946 .4249878 .33224488Z"/>
<path id="font_3_1" d="M.35499574 .75C.16499329 .61598208 .114990238 .40397645 .114990238 .25097657 .114990238 .10997009 .15699768-.10902405 .35499574-.24902344 .36299134-.24902344 .375-.24902344 .375-.23703003 .375-.23103333 .37199403-.22903443 .36499024-.22203064 .23199463-.10203552 .18299866 .067977908 .18299866 .24996948 .18299866 .519989 .28599549 .65197756 .36799623 .72598269 .37199403 .7299957 .375 .73298647 .375 .73799136 .375 .75 .36299134 .75 .35499574 .75Z"/>
<path id="font_4_1" d="M.74398806 .2263794C.7599945 .2263794 .7839966 .2263794 .7839966 .25038148 .7839966 .27539063 .7609863 .27539063 .74398806 .27539063H.147995C.13198853 .27539063 .10798645 .27539063 .10798645 .25138856 .10798645 .2263794 .1309967 .2263794 .147995 .2263794H.74398806Z"/>
<path id="font_3_4" d="M.33499146 .63612368C.33499146 .6630554 .33299256 .6640625 .30499269 .6640625 .24099732 .6014404 .1499939 .6004486 .10899353 .6004486V.5644531C.1329956 .5644531 .19898987 .5644531 .2539978 .592453V.08203125C.2539978 .04899597 .2539978 .035995485 .1539917 .035995485H.115997318V0C.13398743 .0009918213 .25698854 .0039978029 .2939911 .0039978029 .32499696 .0039978029 .45098878 .0009918213 .47299195 0V.035995485H.43499757C.33499146 .035995485 .33499146 .04899597 .33499146 .08203125V.63612368Z"/>
<path id="font_5_1" d="M.21099854 .015991211C.21099854-.03907776 .20098877-.10321045 .1329956-.16732788 .1289978-.17134094 .12599182-.17434693 .12599182-.17933655 .12599182-.18634033 .13398743-.19334412 .13999939-.19334412 .1539917-.19334412 .23899842-.113220218 .23899842 .005996704 .23899842 .067993167 .21499634 .114990238 .16899109 .114990238 .13598633 .114990238 .11199951 .08898926 .11199951 .057998659 .11199951 .025985718 .1349945 0 .16999817 0 .19400025 0 .20999146 .015991211 .21099854 .015991211Z"/>
<path id="font_3_3" d="M.5159912 .31925965C.5159912 .42918397 .5029907 .50813296 .45700074 .5780945 .42599488 .62405398 .3639984 .6640625 .28399659 .6640625 .051986696 .6640625 .051986696 .39120484 .051986696 .31925965 .051986696 .2472992 .051986696-.01953125 .28399659-.01953125 .5159912-.01953125 .5159912 .2472992 .5159912 .31925965M.28399659 .008468628C.23799134 .008468628 .1769867 .035446168 .15699768 .117385867 .14299011 .17634583 .14299011 .25830079 .14299011 .33224488 .14299011 .40519715 .14299011 .4811554 .1579895 .53611758 .1789856 .6150665 .24299622 .63604739 .28399659 .63604739 .33799745 .63604739 .3899994 .6030731 .4079895 .545105 .42399598 .4911499 .4249878 .41918946 .4249878 .33224488 .4249878 .25830079 .4249878 .18434143 .4119873 .12138367 .3919983 .030441285 .32398988 .008468628 .28399659 .008468628Z"/>
<path id="font_3_2" d="M.08999634 .75C.08299255 .75 .070999149 .75 .070999149 .73799136 .070999149 .73298647 .07398987 .7299957 .07998657 .72299197 .1659851 .64398196 .2619934 .5089874 .2619934 .25097657 .2619934 .04197693 .19699097-.11602783 .08898926-.21403504 .07199097-.23103333 .070999149-.23202515 .070999149-.23703003 .070999149-.24203491 .07398987-.24902344 .083999637-.24902344 .09599304-.24902344 .19099427-.18302918 .25698854-.058029176 .30099488 .024978638 .32998658 .13298035 .32998658 .24996948 .32998658 .39097596 .28799439 .60998538 .08999634 .75Z"/>
<path id="font_3_9" d="M.5349884 .6045227C.54499819 .6165161 .54499819 .6185303 .54499819 .64453127H.2829895C.24299622 .64453127 .23199463 .6455078 .19599915 .6484375 .14399719 .65234377 .14199829 .6592407 .13899231 .676239H.10499573L.069992069 .46250917H.10398865C.10598755 .47750855 .115997318 .54351809 .13198853 .5535126 .13999939 .55952456 .22099304 .55952456 .23599243 .55952456H.45399476C.42199708 .5175171 .37098695 .45550538 .34999085 .4275055 .21899414 .25549317 .20698548 .096466068 .20698548 .037460329 .20698548 .02645874 .20698548-.01953125 .2539978-.01953125 .3019867-.01953125 .3019867 .025466919 .3019867 .038467409V.07847595C.3019867 .27249146 .34199525 .36149598 .3849945 .41551209L.5349884 .6045227Z"/>
<path id="font_3_5" d="M.5049896 .18203736H.47099305C.46798707 .16001892 .45799256 .100997928 .44499208 .09098816 .43699647 .084991458 .3600006 .084991458 .34599305 .084991458H.1619873C.2669983 .17803955 .3019867 .20603943 .3619995 .25306703 .43598939 .312088 .5049896 .374115 .5049896 .46914674 .5049896 .5900879 .39898683 .6640625 .2709961 .6640625 .14698792 .6640625 .06298828 .57710269 .06298828 .4851532 .06298828 .43414308 .10598755 .42915345 .115997318 .42915345 .13999939 .42915345 .16899109 .44615174 .16899109 .48214723 .16899109 .5001526 .1619873 .53515627 .10998535 .53515627 .14099121 .6060791 .20899964 .62805178 .2559967 .62805178 .35598756 .62805178 .4079895 .5501404 .4079895 .46914674 .4079895 .38212586 .34599305 .3130951 .31399537 .27708436L.07299805 .038986207C.06298828 .02999878 .06298828 .027999878 .06298828 0H.47499085L.5049896 .18203736Z"/>
<path id="font_3_6" d="M.272995 .33428956C.35099793 .33428956 .40699769 .2803192 .40699769 .1733551 .40699769 .04940796 .33499146 .012466431 .2769928 .012466431 .23699951 .012466431 .14898682 .0234375 .10699463 .082351688 .1539917 .084350589 .16499329 .11735535 .16499329 .13835144 .16499329 .17034912 .14099121 .19335938 .10998535 .19335938 .08198547 .19335938 .053985597 .17634583 .053985597 .13534546 .053985597 .041412355 .1579895-.01953125 .2789917-.01953125 .41799928-.01953125 .5139923 .07336426 .5139923 .1733551 .5139923 .2513275 .44999696 .32929994 .33999635 .35229493 .44499208 .39024354 .48298646 .4650879 .48298646 .5260773 .48298646 .60505679 .3919983 .6640625 .2809906 .6640625 .16999817 .6640625 .084991458 .61006167 .084991458 .5300751 .084991458 .49606324 .10699463 .47706605 .13699341 .47706605 .16799927 .47706605 .18798828 .5000763 .18798828 .5280762 .18798828 .5570679 .16799927 .57806399 .13699341 .5800781 .17199707 .62405398 .24099732 .63505557 .27799989 .63505557 .32299806 .63505557 .38598634 .6130676 .38598634 .5260773 .38598634 .48406983 .37199403 .43814088 .34599305 .4072113 .31298829 .36927796 .2849884 .3672943 .23498535 .36428834 .20999146 .3623047 .20799256 .3623047 .20298767 .3612976 .20098877 .3612976 .19299317 .3592987 .19299317 .34829713 .19299317 .33428956 .20199585 .33428956 .21899414 .33428956H.272995Z"/>
<path id="font_3_7" d="M.15499878 .5588074C.20599365 .5458069 .23599243 .5458069 .2519989 .5458069 .38398744 .5458069 .46199037 .6358032 .46199037 .6508026 .46199037 .6618042 .45498658 .6648102 .44999696 .6648102 .44799806 .6648102 .44599916 .6648102 .44198609 .6618042 .41799928 .6528015 .36499024 .6328125 .29100038 .6328125 .2630005 .6328125 .20999146 .6348114 .14498902 .6598053 .1349945 .6648102 .1329956 .6648102 .13198853 .6648102 .11898804 .6648102 .11898804 .6538086 .11898804 .6378021V.34251405C.11898804 .32548524 .11898804 .3134613 .1349945 .3134613 .14399719 .3134613 .14498902 .3154602 .15499878 .32748414 .19799805 .38259889 .25898744 .390625 .2939911 .390625 .35398866 .390625 .3809967 .34251405 .38598634 .33450318 .4039917 .30143739 .4099884 .26335145 .4099884 .20524597 .4099884 .17524719 .4099884 .116256717 .37998963 .07234192 .35499574 .03640747 .31199647 .012466431 .2630005 .012466431 .19799805 .012466431 .1309967 .04838562 .10598755 .11425781 .14399719 .11125183 .16299439 .13624573 .16299439 .16325379 .16299439 .20625305 .12599182 .21424866 .11299133 .21424866 .11099243 .21424866 .06298828 .21424866 .06298828 .1602478 .06298828 .07034302 .14498902-.01953125 .2649994-.01953125 .3929901-.01953125 .5049896 .07533264 .5049896 .20124817 .5049896 .31445313 .4189911 .41862489 .29499818 .41862489 .25099183 .41862489 .19898987 .4076233 .15499878 .36956788V.5588074Z"/>
<path id="font_3_8" d="M.1499939 .3274536C.1499939 .40945436 .15699768 .48303224 .19499207 .543869 .22898865 .5978699 .2829895 .63505557 .34700013 .63505557 .3769989 .63505557 .4169922 .62701418 .43699647 .5998688 .4119873 .5978699 .3909912 .5808716 .3909912 .5518799 .3909912 .5268707 .4079895 .5048828 .43798829 .5048828 .46798707 .5048828 .48599244 .5248718 .48599244 .5538788 .48599244 .6119385 .44400025 .6640625 .34498597 .6640625 .20098877 .6640625 .053985597 .5318756 .053985597 .3174591 .053985597 .05845642 .17599488-.01953125 .28599549-.01953125 .4079895-.01953125 .5139923 .07345581 .5139923 .20445252 .5139923 .33145143 .41299439 .42546083 .29599 .42546083 .21598816 .42546083 .17199707 .37245179 .1499939 .3274536M.28599549 .012466431C.23599243 .012466431 .19699097 .04145813 .17599488 .08546448 .16099549 .11546326 .15299988 .16545105 .15299988 .22544861 .15299988 .32244874 .21099854 .39746095 .29100038 .39746095 .33699037 .39746095 .36799623 .37945558 .3929901 .342453 .4169922 .30445863 .41799928 .26245118 .41799928 .20445252 .41799928 .14746094 .41799928 .10545349 .3909912 .066467288 .36698915 .031463624 .33499146 .012466431 .28599549 .012466431Z"/>
</defs>
<path transform="matrix(1.00003,0,0,-1.00005,47.43596,156.91223)" stroke-width=".19925" stroke-linecap="butt" stroke-miterlimit="10" stroke-linejoin="miter" fill="none" stroke="#dfdfdf" d="M-35.14977-38.54735H140.59908M-35.14977-19.27367H140.59908M-35.14977 0H140.59908M-35.14977 19.27367H140.59908M-35.14977 38.54735H140.59908M-35.14977 57.82101H140.59908M-35.14977 77.0947H140.59908M-35.14977 96.36838H140.59908M-35.14977 115.64204H140.59908M-35.14977 134.90576H140.59908M-35.14977-38.54735V134.91573M-17.57487-38.54735V134.91573M0-38.54735V134.91573M17.57487-38.54735V134.91573M35.14977-38.54735V134.91573M52.72466-38.54735V134.91573M70.29953-38.54735V134.91573M87.87442-38.54735V134.91573M105.44931-38.54735V134.91573M123.02419-38.54735V134.91573M140.58913-38.54735V134.91573M140.59908 134.91573"/>
<path transform="matrix(1.00003,0,0,-1.00005,47.43596,156.91223)" stroke-width=".79701" stroke-linecap="butt" stroke-miterlimit="10" stroke-linejoin="miter" fill="none" stroke="#000000" d="M-45.6948 0H150.43675"/>
<path transform="matrix(1.00003,0,0,-1.00005,197.87723,156.91223)" stroke-width=".6376" stroke-linecap="round" stroke-linejoin="round" fill="none" stroke="#000000" d="M-1.55415 2.0722C-1.42464 1.29512 0 .1295 .38852 0 0-.1295-1.42464-1.29512-1.55415-2.0722"/>
<use data-text="t" xlink:href="#font_1_2" transform="matrix(8.966669,0,0,-8.966848,202.30362,159.67037)"/>
<path transform="matrix(1.00003,0,0,-1.00005,47.43596,156.91223)" stroke-width=".79701" stroke-linecap="butt" stroke-miterlimit="10" stroke-linejoin="miter" fill="none" stroke="#000000" d="M0-48.18419V147.69994"/>
<path transform="matrix(0,-1.00005,-1.00003,-0,47.43596,9.204926)" stroke-width=".6376" stroke-linecap="round" stroke-linejoin="round" fill="none" stroke="#000000" d="M-1.55415 2.0722C-1.42464 1.29512 0 .1295 .38852 0 0-.1295-1.42464-1.29512-1.55415-2.0722"/>
<use data-text="s" xlink:href="#font_1_1" transform="matrix(8.966669,0,0,-8.966848,45.289896,4.7786257)"/>
<path transform="matrix(1.00003,0,0,-1.00005,47.43596,156.91223)" stroke-width=".3985" stroke-linecap="butt" stroke-miterlimit="10" stroke-linejoin="miter" fill="none" stroke="#000000" d="M-35.14977 0V-7.70946"/>
<use data-text="-" xlink:href="#font_2_64" transform="matrix(6.9740097,0,0,-6.9741489,8.958801,172.77303)"/>
<use data-text="2" xlink:href="#font_2_107" transform="matrix(6.9740097,0,0,-6.9741489,11.643784,172.77303)"/>
<path transform="matrix(1.00003,0,0,-1.00005,47.43596,156.91223)" stroke-width=".3985" stroke-linecap="butt" stroke-miterlimit="10" stroke-linejoin="miter" fill="none" stroke="#000000" d="M-17.57487 0V-7.70946"/>
<use data-text="-" xlink:href="#font_2_64" transform="matrix(6.9740097,0,0,-6.9741489,26.534333,172.77303)"/>
<use data-text="1" xlink:href="#font_2_82" transform="matrix(6.9740097,0,0,-6.9741489,29.219315,172.77303)"/>
<path transform="matrix(1.00003,0,0,-1.00005,47.43596,156.91223)" stroke-width=".3985" stroke-linecap="butt" stroke-miterlimit="10" stroke-linejoin="miter" fill="none" stroke="#000000" d="M17.57487 0V-7.70946"/>
<use data-text="1" xlink:href="#font_2_82" transform="matrix(6.9740097,0,0,-6.9741489,63.027429,172.77303)"/>
<path transform="matrix(1.00003,0,0,-1.00005,47.43596,156.91223)" stroke-width=".3985" stroke-linecap="butt" stroke-miterlimit="10" stroke-linejoin="miter" fill="none" stroke="#000000" d="M35.14977 0V-7.70946"/>
<use data-text="2" xlink:href="#font_2_107" transform="matrix(6.9740097,0,0,-6.9741489,80.60295,172.77303)"/>
<path transform="matrix(1.00003,0,0,-1.00005,47.43596,156.91223)" stroke-width=".3985" stroke-linecap="butt" stroke-miterlimit="10" stroke-linejoin="miter" fill="none" stroke="#000000" d="M52.72466 0V-7.70946"/>
<use data-text="3" xlink:href="#font_2_106" transform="matrix(6.9740097,0,0,-6.9741489,98.17848,172.77303)"/>
<path transform="matrix(1.00003,0,0,-1.00005,47.43596,156.91223)" stroke-width=".3985" stroke-linecap="butt" stroke-miterlimit="10" stroke-linejoin="miter" fill="none" stroke="#000000" d="M70.29953 0V-7.70946"/>
<use data-text="4" xlink:href="#font_2_57" transform="matrix(6.9740097,0,0,-6.9741489,115.75301,172.84304)"/>
<path transform="matrix(1.00003,0,0,-1.00005,47.43596,156.91223)" stroke-width=".3985" stroke-linecap="butt" stroke-miterlimit="10" stroke-linejoin="miter" fill="none" stroke="#000000" d="M87.87442 0V-7.70946"/>
<use data-text="5" xlink:href="#font_2_56" transform="matrix(6.9740097,0,0,-6.9741489,133.32854,172.77303)"/>
<path transform="matrix(1.00003,0,0,-1.00005,47.43596,156.91223)" stroke-width=".3985" stroke-linecap="butt" stroke-miterlimit="10" stroke-linejoin="miter" fill="none" stroke="#000000" d="M105.44931 0V-7.70946"/>
<use data-text="6" xlink:href="#font_2_101" transform="matrix(6.9740097,0,0,-6.9741489,150.90406,172.77303)"/>
<path transform="matrix(1.00003,0,0,-1.00005,47.43596,156.91223)" stroke-width=".3985" stroke-linecap="butt" stroke-miterlimit="10" stroke-linejoin="miter" fill="none" stroke="#000000" d="M123.02419 0V-7.70946"/>
<use data-text="7" xlink:href="#font_2_100" transform="matrix(6.9740097,0,0,-6.9741489,168.4796,172.85703)"/>
<path transform="matrix(1.00003,0,0,-1.00005,47.43596,156.91223)" stroke-width=".3985" stroke-linecap="butt" stroke-miterlimit="10" stroke-linejoin="miter" fill="none" stroke="#000000" d="M140.59908 0V-7.70946"/>
<use data-text="8" xlink:href="#font_2_51" transform="matrix(6.9740097,0,0,-6.9741489,186.05513,172.77303)"/>
<path transform="matrix(1.00003,0,0,-1.00005,47.43596,156.91223)" stroke-width=".3985" stroke-linecap="butt" stroke-miterlimit="10" stroke-linejoin="miter" fill="none" stroke="#000000" d="M0-38.54735H-2.63611"/>
<use data-text="-" xlink:href="#font_2_64" transform="matrix(6.9740097,0,0,-6.9741489,30.658455,197.70728)"/>
<use data-text="8" xlink:href="#font_2_51" transform="matrix(6.9740097,0,0,-6.9741489,33.343439,197.70728)"/>
<use data-text="0" xlink:href="#font_2_121" transform="matrix(6.9740097,0,0,-6.9741489,37.311655,197.70728)"/>
<path transform="matrix(1.00003,0,0,-1.00005,47.43596,156.91223)" stroke-width=".3985" stroke-linecap="butt" stroke-miterlimit="10" stroke-linejoin="miter" fill="none" stroke="#000000" d="M0-19.27367H-2.63611"/>
<use data-text="-" xlink:href="#font_2_64" transform="matrix(6.9740097,0,0,-6.9741489,30.658455,178.46732)"/>
<use data-text="4" xlink:href="#font_2_57" transform="matrix(6.9740097,0,0,-6.9741489,33.343439,178.46732)"/>
<use data-text="0" xlink:href="#font_2_121" transform="matrix(6.9740097,0,0,-6.9741489,37.311655,178.46732)"/>
<path transform="matrix(1.00003,0,0,-1.00005,47.43596,156.91223)" stroke-width=".3985" stroke-linecap="butt" stroke-miterlimit="10" stroke-linejoin="miter" fill="none" stroke="#000000" d="M0 19.27367H-2.63611"/>
<use data-text="4" xlink:href="#font_2_57" transform="matrix(6.9740097,0,0,-6.9741489,33.343538,139.91838)"/>
<use data-text="0" xlink:href="#font_2_121" transform="matrix(6.9740097,0,0,-6.9741489,37.311754,139.91838)"/>
<path transform="matrix(1.00003,0,0,-1.00005,47.43596,156.91223)" stroke-width=".3985" stroke-linecap="butt" stroke-miterlimit="10" stroke-linejoin="miter" fill="none" stroke="#000000" d="M0 38.54735H-2.63611"/>
<use data-text="8" xlink:href="#font_2_51" transform="matrix(6.9740097,0,0,-6.9741489,33.343538,120.60842)"/>
<use data-text="0" xlink:href="#font_2_121" transform="matrix(6.9740097,0,0,-6.9741489,37.311754,120.60842)"/>
<path transform="matrix(1.00003,0,0,-1.00005,47.43596,156.91223)" stroke-width=".3985" stroke-linecap="butt" stroke-miterlimit="10" stroke-linejoin="miter" fill="none" stroke="#000000" d="M0 57.82101H-2.63611"/>
<use data-text="1" xlink:href="#font_2_82" transform="matrix(6.9740097,0,0,-6.9741489,29.37542,101.33446)"/>
<use data-text="2" xlink:href="#font_2_107" transform="matrix(6.9740097,0,0,-6.9741489,33.343637,101.33446)"/>
<use data-text="0" xlink:href="#font_2_121" transform="matrix(6.9740097,0,0,-6.9741489,37.311838,101.33446)"/>
<path transform="matrix(1.00003,0,0,-1.00005,47.43596,156.91223)" stroke-width=".3985" stroke-linecap="butt" stroke-miterlimit="10" stroke-linejoin="miter" fill="none" stroke="#000000" d="M0 77.0947H-2.63611"/>
<use data-text="1" xlink:href="#font_2_82" transform="matrix(6.9740097,0,0,-6.9741489,29.37542,82.059497)"/>
<use data-text="6" xlink:href="#font_2_101" transform="matrix(6.9740097,0,0,-6.9741489,33.343637,82.059497)"/>
<use data-text="0" xlink:href="#font_2_121" transform="matrix(6.9740097,0,0,-6.9741489,37.311838,82.059497)"/>
<path transform="matrix(1.00003,0,0,-1.00005,47.43596,156.91223)" stroke-width=".3985" stroke-linecap="butt" stroke-miterlimit="10" stroke-linejoin="miter" fill="none" stroke="#000000" d="M0 96.36838H-2.63611"/>
<use data-text="2" xlink:href="#font_2_107" transform="matrix(6.9740097,0,0,-6.9741489,29.37542,62.78453)"/>
<use data-text="0" xlink:href="#font_2_121" transform="matrix(6.9740097,0,0,-6.9741489,33.343637,62.78453)"/>
<use data-text="0" xlink:href="#font_2_121" transform="matrix(6.9740097,0,0,-6.9741489,37.311838,62.78453)"/>
<path transform="matrix(1.00003,0,0,-1.00005,47.43596,156.91223)" stroke-width=".3985" stroke-linecap="butt" stroke-miterlimit="10" stroke-linejoin="miter" fill="none" stroke="#000000" d="M0 115.64204H-2.63611"/>
<use data-text="2" xlink:href="#font_2_107" transform="matrix(6.9740097,0,0,-6.9741489,29.37542,43.54457)"/>
<use data-text="4" xlink:href="#font_2_57" transform="matrix(6.9740097,0,0,-6.9741489,33.343637,43.54457)"/>
<use data-text="0" xlink:href="#font_2_121" transform="matrix(6.9740097,0,0,-6.9741489,37.311838,43.54457)"/>
<path transform="matrix(1.00003,0,0,-1.00005,47.43596,156.91223)" stroke-width=".3985" stroke-linecap="butt" stroke-miterlimit="10" stroke-linejoin="miter" fill="none" stroke="#000000" d="M0 134.91573H-2.63611"/>
<use data-text="2" xlink:href="#font_2_107" transform="matrix(6.9740097,0,0,-6.9741489,29.37542,24.235611)"/>
<use data-text="8" xlink:href="#font_2_51" transform="matrix(6.9740097,0,0,-6.9741489,33.343637,24.235611)"/>
<use data-text="0" xlink:href="#font_2_121" transform="matrix(6.9740097,0,0,-6.9741489,37.311838,24.235611)"/>
<path transform="matrix(1.00003,0,0,-1.00005,47.43596,156.91223)" stroke-width="1.19553" stroke-linecap="butt" stroke-miterlimit="10" stroke-linejoin="miter" fill="none" stroke="#0000ff" d="M-27.24112-36.25397-25.62564-29.87044-24.01018-23.61716-22.39471-17.49417-20.77925-11.50145-19.16379-5.63899-17.54832 .09314-15.93285 5.69502-14.3174 11.16664-12.70193 16.50798-11.08646 21.71904-9.471 26.79984-7.85555 31.75034-6.24007 36.57057-4.6246 41.26054-3.00914 45.82024-1.39368 50.24963 .22176 54.54877 1.83723 58.71762 3.4527 62.7562 5.06816 66.6645 6.68362 70.44252 8.29909 74.09029 9.91455 77.60776 11.53003 80.99495 13.14548 84.25188 14.76094 87.37852 16.37642 90.37491 17.99188 93.241 19.60733 95.97682 21.22281 98.58235 22.83827 101.05762 24.45374 103.4026 26.0692 105.61732 27.68466 107.70177 29.30014 109.65591 30.9156 111.47981 32.53105 113.17342 34.14653 114.73676 35.762 116.16982 37.37746 117.4726 38.99292 118.6451 40.60838 119.68735 42.22385 120.59929 43.83932 121.38097 45.45477 122.03236 47.07024 122.5535 48.68571 122.94434 50.30118 123.20491 51.91663 123.3352 53.5321 123.33524 55.14757 123.20499 56.76305 122.94446 58.37851 122.55365 59.99396 122.03256 61.60944 121.38121 63.2249 120.59956 64.84036 119.68767 66.45583 118.64546 68.07129 117.473 69.68675 116.17027 71.30223 114.73724 72.91768 113.17397 74.53314 111.4804 76.14862 109.65654 77.76408 107.70244 79.37955 105.61803 80.99501 103.40337 82.61047 101.05843 84.22595 98.58319 85.8414 95.97769 87.45686 93.24191 89.07234 90.37587 90.6878 87.37953 92.30325 84.25293 93.91873 80.99606 95.5342 77.6089 97.14966 74.09148 98.76512 70.44376 100.38058 66.66577 101.99605 62.7575 103.61153 58.719 105.22697 54.55017 106.84245 50.25108 108.45792 45.82172 110.07338 41.26207 111.68886 36.57216 113.3043 31.75197 114.91977 26.8015 116.53525 21.72075 118.15071 16.50974 119.76616 11.16843 121.38164 5.69685 122.9971 .09502 124.61256-5.63707 126.22803-11.49947 127.84349-17.49214 129.45896-23.61511 131.07444-29.86833 132.68988-36.25185"/>
<path transform="matrix(1.00003,0,0,-1.00005,47.43596,156.91223)" d="M-15.58232 0C-15.58232 1.10046-16.47441 1.99255-17.57487 1.99255-18.67535 1.99255-19.56743 1.10046-19.56743 0-19.56743-1.10046-18.67535-1.99255-17.57487-1.99255-16.47441-1.99255-15.58232-1.10046-15.58232 0ZM-17.57487 0"/>
<path transform="matrix(1.00003,0,0,-1.00005,47.43596,156.91223)" stroke-width=".3985" stroke-linecap="butt" stroke-miterlimit="10" stroke-linejoin="miter" fill="none" stroke="#000000" d="M-15.58232 0C-15.58232 1.10046-16.47441 1.99255-17.57487 1.99255-18.67535 1.99255-19.56743 1.10046-19.56743 0-19.56743-1.10046-18.67535-1.99255-17.57487-1.99255-16.47441-1.99255-15.58232-1.10046-15.58232 0ZM-17.57487 0"/>
<use data-text="(" xlink:href="#font_3_1" transform="matrix(6.9740097,0,0,-6.9741489,2.2165986,151.64897)"/>
<use data-text="&#x2212;" xlink:href="#font_4_1" transform="matrix(6.9740097,0,0,-6.9741489,5.3306887,151.64897)"/>
<use data-text="1" xlink:href="#font_3_4" transform="matrix(6.9740097,0,0,-6.9741489,11.5568699,151.64897)"/>
<use data-text="," xlink:href="#font_5_1" transform="matrix(6.9740097,0,0,-6.9741489,15.527985,151.64897)"/>
<use data-text="0" xlink:href="#font_3_3" transform="matrix(6.9740097,0,0,-6.9741489,19.255097,151.64897)"/>
<use data-text=")" xlink:href="#font_3_2" transform="matrix(6.9740097,0,0,-6.9741489,23.223313,151.64897)"/>
<path transform="matrix(1.00003,0,0,-1.00005,47.43596,156.91223)" d="M125.01674 0C125.01674 1.10046 124.12466 1.99255 123.02419 1.99255 121.92372 1.99255 121.03163 1.10046 121.03163 0 121.03163-1.10046 121.92372-1.99255 123.02419-1.99255 124.12466-1.99255 125.01674-1.10046 125.01674 0ZM123.02419 0"/>
<path transform="matrix(1.00003,0,0,-1.00005,47.43596,156.91223)" stroke-width=".3985" stroke-linecap="butt" stroke-miterlimit="10" stroke-linejoin="miter" fill="none" stroke="#000000" d="M125.01674 0C125.01674 1.10046 124.12466 1.99255 123.02419 1.99255 121.92372 1.99255 121.03163 1.10046 121.03163 0 121.03163-1.10046 121.92372-1.99255 123.02419-1.99255 124.12466-1.99255 125.01674-1.10046 125.01674 0ZM123.02419 0"/>
<use data-text="(" xlink:href="#font_3_1" transform="matrix(6.9740097,0,0,-6.9741489,173.98377,151.64897)"/>
<use data-text="7" xlink:href="#font_3_9" transform="matrix(6.9740097,0,0,-6.9741489,177.09418,151.64897)"/>
<use data-text="," xlink:href="#font_5_1" transform="matrix(6.9740097,0,0,-6.9741489,181.06897,151.64897)"/>
<use data-text="0" xlink:href="#font_3_3" transform="matrix(6.9740097,0,0,-6.9741489,184.79608,151.64897)"/>
<use data-text=")" xlink:href="#font_3_2" transform="matrix(6.9740097,0,0,-6.9741489,188.76432,151.64897)"/>
<path transform="matrix(1.00003,0,0,-1.00005,47.43596,156.91223)" d="M1.99255 53.9663C1.99255 55.06676 1.10046 55.95885 0 55.95885-1.10046 55.95885-1.99255 55.06676-1.99255 53.9663-1.99255 52.86581-1.10046 51.97374 0 51.97374 1.10046 51.97374 1.99255 52.86581 1.99255 53.9663ZM0 53.9663"/>
<path transform="matrix(1.00003,0,0,-1.00005,47.43596,156.91223)" stroke-width=".3985" stroke-linecap="butt" stroke-miterlimit="10" stroke-linejoin="miter" fill="none" stroke="#000000" d="M1.99255 53.9663C1.99255 55.06676 1.10046 55.95885 0 55.95885-1.10046 55.95885-1.99255 55.06676-1.99255 53.9663-1.99255 52.86581-1.10046 51.97374 0 51.97374 1.10046 51.97374 1.99255 52.86581 1.99255 53.9663ZM0 53.9663"/>
<use data-text="(" xlink:href="#font_3_1" transform="matrix(6.9740097,0,0,-6.9741489,50.956064,111.69397)"/>
<use data-text="0" xlink:href="#font_3_3" transform="matrix(6.9740097,0,0,-6.9741489,54.066476,111.69397)"/>
<use data-text="," xlink:href="#font_5_1" transform="matrix(6.9740097,0,0,-6.9741489,58.041284,111.69397)"/>
<use data-text="1" xlink:href="#font_3_4" transform="matrix(6.9740097,0,0,-6.9741489,61.768396,111.69397)"/>
<use data-text="1" xlink:href="#font_3_4" transform="matrix(6.9740097,0,0,-6.9741489,65.73661,111.69397)"/>
<use data-text="2" xlink:href="#font_3_5" transform="matrix(6.9740097,0,0,-6.9741489,69.70483,111.69397)"/>
<use data-text=")" xlink:href="#font_3_2" transform="matrix(6.9740097,0,0,-6.9741489,73.67303,111.69397)"/>
<path transform="matrix(1.00003,0,0,-1.00005,47.43596,156.91223)" d="M54.71721 123.35152C54.71721 124.452 53.82512 125.34407 52.72466 125.34407 51.62418 125.34407 50.7321 124.452 50.7321 123.35152 50.7321 122.25105 51.62418 121.35896 52.72466 121.35896 53.82512 121.35896 54.71721 122.25105 54.71721 123.35152ZM52.72466 123.35152"/>
<path transform="matrix(1.00003,0,0,-1.00005,47.43596,156.91223)" stroke-width=".3985" stroke-linecap="butt" stroke-miterlimit="10" stroke-linejoin="miter" fill="none" stroke="#000000" d="M54.71721 123.35152C54.71721 124.452 53.82512 125.34407 52.72466 125.34407 51.62418 125.34407 50.7321 124.452 50.7321 123.35152 50.7321 122.25105 51.62418 121.35896 52.72466 121.35896 53.82512 121.35896 54.71721 122.25105 54.71721 123.35152ZM52.72466 123.35152"/>
<use data-text="(" xlink:href="#font_3_1" transform="matrix(6.9740097,0,0,-6.9741489,87.24216,28.290802)"/>
<use data-text="3" xlink:href="#font_3_6" transform="matrix(6.9740097,0,0,-6.9741489,90.35257,28.290802)"/>
<use data-text="," xlink:href="#font_5_1" transform="matrix(6.9740097,0,0,-6.9741489,94.32738,28.290802)"/>
<use data-text="2" xlink:href="#font_3_5" transform="matrix(6.9740097,0,0,-6.9741489,98.05449,28.290802)"/>
<use data-text="5" xlink:href="#font_3_7" transform="matrix(6.9740097,0,0,-6.9741489,102.022708,28.290802)"/>
<use data-text="6" xlink:href="#font_3_8" transform="matrix(6.9740097,0,0,-6.9741489,105.99092,28.290802)"/>
<use data-text=")" xlink:href="#font_3_2" transform="matrix(6.9740097,0,0,-6.9741489,109.95912,28.290802)"/>
</svg>
