<svg xmlns="http://www.w3.org/2000/svg" id="lt3-pattern-blocks-figure" width="670" height="190" viewBox="0 0 670 190">
  <defs>
    <clipPath id="lt3-pattern-blocks-clipPath-0">
      <rect x="5.0" y="5.0" width="660.0" height="180.0"/>
    </clipPath>
    <clipPath id="lt3-pattern-blocks-clipPath-1">
      <rect x="5.0" y="5.0" width="660.0" height="180.0"/>
    </clipPath>
  </defs>
  <g id="lt3-pattern-blocks-group-0">
    <g id="lt3-pattern-blocks-group-1-case_1-case_1">
      <g id="lt3-pattern-blocks-group-2-case_1-col_0-case_1-col_0">
        <path id="lt3-pattern-blocks-path-0-case_1-col_0-row_0" d="M 12.7 137.8 L 24.2 137.8 L 24.2 112.2 L 12.7 112.2 Z" stroke="black" stroke-width="2" fill="mediumpurple"/>
        <path id="lt3-pattern-blocks-path-1-case_1-col_0-row_1" d="M 12.7 107.8 L 24.2 107.8 L 24.2 82.2 L 12.7 82.2 Z" stroke="black" stroke-width="2" fill="mediumpurple"/>
      </g>
      <g id="lt3-pattern-blocks-group-3-case_1-col_1-case_1-col_1">
        <path id="lt3-pattern-blocks-path-2-case_1-col_1-row_0" d="M 26.2 137.8 L 37.7 137.8 L 37.7 112.2 L 26.2 112.2 Z" stroke="black" stroke-width="2" fill="mediumpurple"/>
        <path id="lt3-pattern-blocks-path-3-case_1-col_1-row_1" d="M 26.2 107.8 L 37.7 107.8 L 37.7 82.2 L 26.2 82.2 Z" stroke="black" stroke-width="2" fill="mediumpurple"/>
      </g>
      <g id="lt3-pattern-blocks-group-4-case_1-col_2-case_1-col_2">
        <path id="lt3-pattern-blocks-path-4-case_1-col_2-row_0" d="M 39.7 137.8 L 51.1 137.8 L 51.1 112.2 L 39.7 112.2 Z" stroke="black" stroke-width="2" fill="mediumpurple"/>
        <path id="lt3-pattern-blocks-path-5-case_1-col_2-row_1" d="M 39.7 107.8 L 51.1 107.8 L 51.1 82.2 L 39.7 82.2 Z" stroke="black" stroke-width="2" fill="mediumpurple"/>
      </g>
    </g>
    <g id="lt3-pattern-blocks-label-0-case_1" transform="translate(45.4,167.0) translate(-25.4,-6.6)">
      <g id="lt3-pattern-blocks-g-0">
        <svg xmlns:xlink="http://www.w3.org/1999/xlink" style="vertical-align: -0.384px" width="50.856px" height="13.144px" role="img" focusable="false" viewBox="0 -705 2810 726" x="0.0" y="0.0">
          <defs>
            <path id="lt3-pattern-blocks-MJX-2-TEX-N-43" d="M56 342Q56 428 89 500T174 615T283 681T391 705Q394 705 400 705T408 704Q499 704 569 636L582 624L612 663Q639 700 643 704Q644 704 647 704T653 705H657Q660 705 666 699V419L660 413H626Q620 419 619 430Q610 512 571 572T476 651Q457 658 426 658Q322 658 252 588Q173 509 173 342Q173 221 211 151Q232 111 263 84T328 45T384 29T428 24Q517 24 571 93T626 244Q626 251 632 257H660L666 251V236Q661 133 590 56T403 -21Q262 -21 159 83T56 342Z"/>
            <path id="lt3-pattern-blocks-MJX-2-TEX-N-61" d="M137 305T115 305T78 320T63 359Q63 394 97 421T218 448Q291 448 336 416T396 340Q401 326 401 309T402 194V124Q402 76 407 58T428 40Q443 40 448 56T453 109V145H493V106Q492 66 490 59Q481 29 455 12T400 -6T353 12T329 54V58L327 55Q325 52 322 49T314 40T302 29T287 17T269 6T247 -2T221 -8T190 -11Q130 -11 82 20T34 107Q34 128 41 147T68 188T116 225T194 253T304 268H318V290Q318 324 312 340Q290 411 215 411Q197 411 181 410T156 406T148 403Q170 388 170 359Q170 334 154 320ZM126 106Q126 75 150 51T209 26Q247 26 276 49T315 109Q317 116 318 175Q318 233 317 233Q309 233 296 232T251 223T193 203T147 166T126 106Z"/>
            <path id="lt3-pattern-blocks-MJX-2-TEX-N-73" d="M295 316Q295 356 268 385T190 414Q154 414 128 401Q98 382 98 349Q97 344 98 336T114 312T157 287Q175 282 201 278T245 269T277 256Q294 248 310 236T342 195T359 133Q359 71 321 31T198 -10H190Q138 -10 94 26L86 19L77 10Q71 4 65 -1L54 -11H46H42Q39 -11 33 -5V74V132Q33 153 35 157T45 162H54Q66 162 70 158T75 146T82 119T101 77Q136 26 198 26Q295 26 295 104Q295 133 277 151Q257 175 194 187T111 210Q75 227 54 256T33 318Q33 357 50 384T93 424T143 442T187 447H198Q238 447 268 432L283 424L292 431Q302 440 314 448H322H326Q329 448 335 442V310L329 304H301Q295 310 295 316Z"/>
            <path id="lt3-pattern-blocks-MJX-2-TEX-N-65" d="M28 218Q28 273 48 318T98 391T163 433T229 448Q282 448 320 430T378 380T406 316T415 245Q415 238 408 231H126V216Q126 68 226 36Q246 30 270 30Q312 30 342 62Q359 79 369 104L379 128Q382 131 395 131H398Q415 131 415 121Q415 117 412 108Q393 53 349 21T250 -11Q155 -11 92 58T28 218ZM333 275Q322 403 238 411H236Q228 411 220 410T195 402T166 381T143 340T127 274V267H333V275Z"/>
            <path id="lt3-pattern-blocks-MJX-2-TEX-N-A0" d=""/>
            <path id="lt3-pattern-blocks-MJX-2-TEX-N-31" d="M213 578L200 573Q186 568 160 563T102 556H83V602H102Q149 604 189 617T245 641T273 663Q275 666 285 666Q294 666 302 660V361L303 61Q310 54 315 52T339 48T401 46H427V0H416Q395 3 257 3Q121 3 100 0H88V46H114Q136 46 152 46T177 47T193 50T201 52T207 57T213 61V578Z"/>
          </defs>
          <g stroke="currentColor" fill="currentColor" stroke-width="0" transform="scale(1,-1)">
            <g data-mml-node="math" data-semantic-type="punctuated" data-semantic-role="text" data-semantic-id="3" data-semantic-children="0,1" data-semantic-collapsed="(3 (c 2) 0 1)" data-semantic-speech="Case 1">
              <g data-mml-node="mtext" data-semantic-type="text" data-semantic-role="unknown" data-semantic-font="normal" data-semantic-annotation="clearspeak:unit" data-semantic-id="0" data-semantic-parent="3" data-semantic-speech="Case">
                <use data-c="43" xlink:href="#lt3-pattern-blocks-MJX-2-TEX-N-43"/>
                <use data-c="61" xlink:href="#lt3-pattern-blocks-MJX-2-TEX-N-61" transform="translate(722,0)"/>
                <use data-c="73" xlink:href="#lt3-pattern-blocks-MJX-2-TEX-N-73" transform="translate(1222,0)"/>
                <use data-c="65" xlink:href="#lt3-pattern-blocks-MJX-2-TEX-N-65" transform="translate(1616,0)"/>
                <use data-c="A0" xlink:href="#lt3-pattern-blocks-MJX-2-TEX-N-A0" transform="translate(2060,0)"/>
              </g>
              <g data-mml-node="mn" data-semantic-type="number" data-semantic-role="integer" data-semantic-font="normal" data-semantic-annotation="clearspeak:simple" data-semantic-id="1" data-semantic-parent="3" data-semantic-speech="1" transform="translate(2310,0)">
                <use data-c="31" xlink:href="#lt3-pattern-blocks-MJX-2-TEX-N-31"/>
              </g>
            </g>
          </g>
        </svg>
      </g>
    </g>
    <g id="lt3-pattern-blocks-group-5-case_2-case_2">
      <g id="lt3-pattern-blocks-group-6-case_2-col_0-case_2-col_0">
        <path id="lt3-pattern-blocks-path-6-case_2-col_0-row_0" d="M 147.4 137.8 L 158.9 137.8 L 158.9 112.2 L 147.4 112.2 Z" stroke="black" stroke-width="2" fill="mediumpurple"/>
        <path id="lt3-pattern-blocks-path-7-case_2-col_0-row_1" d="M 147.4 107.8 L 158.9 107.8 L 158.9 82.2 L 147.4 82.2 Z" stroke="black" stroke-width="2" fill="mediumpurple"/>
      </g>
      <g id="lt3-pattern-blocks-group-7-case_2-col_1-case_2-col_1">
        <path id="lt3-pattern-blocks-path-8-case_2-col_1-row_0" d="M 160.9 137.8 L 172.4 137.8 L 172.4 112.2 L 160.9 112.2 Z" stroke="black" stroke-width="2" fill="mediumpurple"/>
        <path id="lt3-pattern-blocks-path-9-case_2-col_1-row_1" d="M 160.9 107.8 L 172.4 107.8 L 172.4 82.2 L 160.9 82.2 Z" stroke="black" stroke-width="2" fill="mediumpurple"/>
      </g>
      <g id="lt3-pattern-blocks-group-8-case_2-col_2-case_2-col_2">
        <path id="lt3-pattern-blocks-path-10-case_2-col_2-row_0" d="M 174.4 137.8 L 185.8 137.8 L 185.8 112.2 L 174.4 112.2 Z" stroke="black" stroke-width="2" fill="mediumpurple"/>
        <path id="lt3-pattern-blocks-path-11-case_2-col_2-row_1" d="M 174.4 107.8 L 185.8 107.8 L 185.8 82.2 L 174.4 82.2 Z" stroke="black" stroke-width="2" fill="mediumpurple"/>
      </g>
      <g id="lt3-pattern-blocks-group-9-case_2-col_3-case_2-col_3">
        <path id="lt3-pattern-blocks-path-12-case_2-col_3-row_0" d="M 187.8 137.8 L 199.3 137.8 L 199.3 112.2 L 187.8 112.2 Z" stroke="black" stroke-width="2" fill="mediumpurple"/>
        <path id="lt3-pattern-blocks-path-13-case_2-col_3-row_1" d="M 187.8 107.8 L 199.3 107.8 L 199.3 82.2 L 187.8 82.2 Z" stroke="black" stroke-width="2" fill="mediumpurple"/>
      </g>
    </g>
    <g id="lt3-pattern-blocks-label-1-case_2" transform="translate(180.1,167.0) translate(-25.4,-6.6)">
      <g id="lt3-pattern-blocks-g-1">
        <svg xmlns:xlink="http://www.w3.org/1999/xlink" style="vertical-align: -0.384px" width="50.856px" height="13.144px" role="img" focusable="false" viewBox="0 -705 2810 726" x="0.0" y="0.0">
          <defs>
            <path id="lt3-pattern-blocks-MJX-3-TEX-N-43" d="M56 342Q56 428 89 500T174 615T283 681T391 705Q394 705 400 705T408 704Q499 704 569 636L582 624L612 663Q639 700 643 704Q644 704 647 704T653 705H657Q660 705 666 699V419L660 413H626Q620 419 619 430Q610 512 571 572T476 651Q457 658 426 658Q322 658 252 588Q173 509 173 342Q173 221 211 151Q232 111 263 84T328 45T384 29T428 24Q517 24 571 93T626 244Q626 251 632 257H660L666 251V236Q661 133 590 56T403 -21Q262 -21 159 83T56 342Z"/>
            <path id="lt3-pattern-blocks-MJX-3-TEX-N-61" d="M137 305T115 305T78 320T63 359Q63 394 97 421T218 448Q291 448 336 416T396 340Q401 326 401 309T402 194V124Q402 76 407 58T428 40Q443 40 448 56T453 109V145H493V106Q492 66 490 59Q481 29 455 12T400 -6T353 12T329 54V58L327 55Q325 52 322 49T314 40T302 29T287 17T269 6T247 -2T221 -8T190 -11Q130 -11 82 20T34 107Q34 128 41 147T68 188T116 225T194 253T304 268H318V290Q318 324 312 340Q290 411 215 411Q197 411 181 410T156 406T148 403Q170 388 170 359Q170 334 154 320ZM126 106Q126 75 150 51T209 26Q247 26 276 49T315 109Q317 116 318 175Q318 233 317 233Q309 233 296 232T251 223T193 203T147 166T126 106Z"/>
            <path id="lt3-pattern-blocks-MJX-3-TEX-N-73" d="M295 316Q295 356 268 385T190 414Q154 414 128 401Q98 382 98 349Q97 344 98 336T114 312T157 287Q175 282 201 278T245 269T277 256Q294 248 310 236T342 195T359 133Q359 71 321 31T198 -10H190Q138 -10 94 26L86 19L77 10Q71 4 65 -1L54 -11H46H42Q39 -11 33 -5V74V132Q33 153 35 157T45 162H54Q66 162 70 158T75 146T82 119T101 77Q136 26 198 26Q295 26 295 104Q295 133 277 151Q257 175 194 187T111 210Q75 227 54 256T33 318Q33 357 50 384T93 424T143 442T187 447H198Q238 447 268 432L283 424L292 431Q302 440 314 448H322H326Q329 448 335 442V310L329 304H301Q295 310 295 316Z"/>
            <path id="lt3-pattern-blocks-MJX-3-TEX-N-65" d="M28 218Q28 273 48 318T98 391T163 433T229 448Q282 448 320 430T378 380T406 316T415 245Q415 238 408 231H126V216Q126 68 226 36Q246 30 270 30Q312 30 342 62Q359 79 369 104L379 128Q382 131 395 131H398Q415 131 415 121Q415 117 412 108Q393 53 349 21T250 -11Q155 -11 92 58T28 218ZM333 275Q322 403 238 411H236Q228 411 220 410T195 402T166 381T143 340T127 274V267H333V275Z"/>
            <path id="lt3-pattern-blocks-MJX-3-TEX-N-A0" d=""/>
            <path id="lt3-pattern-blocks-MJX-3-TEX-N-32" d="M109 429Q82 429 66 447T50 491Q50 562 103 614T235 666Q326 666 387 610T449 465Q449 422 429 383T381 315T301 241Q265 210 201 149L142 93L218 92Q375 92 385 97Q392 99 409 186V189H449V186Q448 183 436 95T421 3V0H50V19V31Q50 38 56 46T86 81Q115 113 136 137Q145 147 170 174T204 211T233 244T261 278T284 308T305 340T320 369T333 401T340 431T343 464Q343 527 309 573T212 619Q179 619 154 602T119 569T109 550Q109 549 114 549Q132 549 151 535T170 489Q170 464 154 447T109 429Z"/>
          </defs>
          <g stroke="currentColor" fill="currentColor" stroke-width="0" transform="scale(1,-1)">
            <g data-mml-node="math" data-semantic-type="punctuated" data-semantic-role="text" data-semantic-id="3" data-semantic-children="0,1" data-semantic-collapsed="(3 (c 2) 0 1)" data-semantic-speech="Case 2">
              <g data-mml-node="mtext" data-semantic-type="text" data-semantic-role="unknown" data-semantic-font="normal" data-semantic-annotation="clearspeak:unit" data-semantic-id="0" data-semantic-parent="3" data-semantic-speech="Case">
                <use data-c="43" xlink:href="#lt3-pattern-blocks-MJX-3-TEX-N-43"/>
                <use data-c="61" xlink:href="#lt3-pattern-blocks-MJX-3-TEX-N-61" transform="translate(722,0)"/>
                <use data-c="73" xlink:href="#lt3-pattern-blocks-MJX-3-TEX-N-73" transform="translate(1222,0)"/>
                <use data-c="65" xlink:href="#lt3-pattern-blocks-MJX-3-TEX-N-65" transform="translate(1616,0)"/>
                <use data-c="A0" xlink:href="#lt3-pattern-blocks-MJX-3-TEX-N-A0" transform="translate(2060,0)"/>
              </g>
              <g data-mml-node="mn" data-semantic-type="number" data-semantic-role="integer" data-semantic-font="normal" data-semantic-annotation="clearspeak:simple" data-semantic-id="1" data-semantic-parent="3" data-semantic-speech="2" transform="translate(2310,0)">
                <use data-c="32" xlink:href="#lt3-pattern-blocks-MJX-3-TEX-N-32"/>
              </g>
            </g>
          </g>
        </svg>
      </g>
    </g>
    <g id="lt3-pattern-blocks-group-10-case_3-case_3">
      <g id="lt3-pattern-blocks-group-11-case_3-col_0-case_3-col_0">
        <path id="lt3-pattern-blocks-path-14-case_3-col_0-row_0" d="M 282.1 137.8 L 293.6 137.8 L 293.6 112.2 L 282.1 112.2 Z" stroke="black" stroke-width="2" fill="mediumpurple"/>
        <path id="lt3-pattern-blocks-path-15-case_3-col_0-row_1" d="M 282.1 107.8 L 293.6 107.8 L 293.6 82.2 L 282.1 82.2 Z" stroke="black" stroke-width="2" fill="mediumpurple"/>
      </g>
      <g id="lt3-pattern-blocks-group-12-case_3-col_1-case_3-col_1">
        <path id="lt3-pattern-blocks-path-16-case_3-col_1-row_0" d="M 295.6 137.8 L 307.1 137.8 L 307.1 112.2 L 295.6 112.2 Z" stroke="black" stroke-width="2" fill="mediumpurple"/>
        <path id="lt3-pattern-blocks-path-17-case_3-col_1-row_1" d="M 295.6 107.8 L 307.1 107.8 L 307.1 82.2 L 295.6 82.2 Z" stroke="black" stroke-width="2" fill="mediumpurple"/>
      </g>
      <g id="lt3-pattern-blocks-group-13-case_3-col_2-case_3-col_2">
        <path id="lt3-pattern-blocks-path-18-case_3-col_2-row_0" d="M 309.1 137.8 L 320.5 137.8 L 320.5 112.2 L 309.1 112.2 Z" stroke="black" stroke-width="2" fill="mediumpurple"/>
        <path id="lt3-pattern-blocks-path-19-case_3-col_2-row_1" d="M 309.1 107.8 L 320.5 107.8 L 320.5 82.2 L 309.1 82.2 Z" stroke="black" stroke-width="2" fill="mediumpurple"/>
      </g>
      <g id="lt3-pattern-blocks-group-14-case_3-col_3-case_3-col_3">
        <path id="lt3-pattern-blocks-path-20-case_3-col_3-row_0" d="M 322.5 137.8 L 334.0 137.8 L 334.0 112.2 L 322.5 112.2 Z" stroke="black" stroke-width="2" fill="mediumpurple"/>
        <path id="lt3-pattern-blocks-path-21-case_3-col_3-row_1" d="M 322.5 107.8 L 334.0 107.8 L 334.0 82.2 L 322.5 82.2 Z" stroke="black" stroke-width="2" fill="mediumpurple"/>
      </g>
      <g id="lt3-pattern-blocks-group-15-case_3-col_4-case_3-col_4">
        <path id="lt3-pattern-blocks-path-22-case_3-col_4-row_0" d="M 336.0 137.8 L 347.5 137.8 L 347.5 112.2 L 336.0 112.2 Z" stroke="black" stroke-width="2" fill="mediumpurple"/>
        <path id="lt3-pattern-blocks-path-23-case_3-col_4-row_1" d="M 336.0 107.8 L 347.5 107.8 L 347.5 82.2 L 336.0 82.2 Z" stroke="black" stroke-width="2" fill="mediumpurple"/>
      </g>
    </g>
    <g id="lt3-pattern-blocks-label-2-case_3" transform="translate(314.8,167.0) translate(-25.4,-6.6)">
      <g id="lt3-pattern-blocks-g-2">
        <svg xmlns:xlink="http://www.w3.org/1999/xlink" style="vertical-align: -0.400px" width="50.856px" height="13.160px" role="img" focusable="false" viewBox="0 -705 2810 727" x="0.0" y="0.0">
          <defs>
            <path id="lt3-pattern-blocks-MJX-4-TEX-N-43" d="M56 342Q56 428 89 500T174 615T283 681T391 705Q394 705 400 705T408 704Q499 704 569 636L582 624L612 663Q639 700 643 704Q644 704 647 704T653 705H657Q660 705 666 699V419L660 413H626Q620 419 619 430Q610 512 571 572T476 651Q457 658 426 658Q322 658 252 588Q173 509 173 342Q173 221 211 151Q232 111 263 84T328 45T384 29T428 24Q517 24 571 93T626 244Q626 251 632 257H660L666 251V236Q661 133 590 56T403 -21Q262 -21 159 83T56 342Z"/>
            <path id="lt3-pattern-blocks-MJX-4-TEX-N-61" d="M137 305T115 305T78 320T63 359Q63 394 97 421T218 448Q291 448 336 416T396 340Q401 326 401 309T402 194V124Q402 76 407 58T428 40Q443 40 448 56T453 109V145H493V106Q492 66 490 59Q481 29 455 12T400 -6T353 12T329 54V58L327 55Q325 52 322 49T314 40T302 29T287 17T269 6T247 -2T221 -8T190 -11Q130 -11 82 20T34 107Q34 128 41 147T68 188T116 225T194 253T304 268H318V290Q318 324 312 340Q290 411 215 411Q197 411 181 410T156 406T148 403Q170 388 170 359Q170 334 154 320ZM126 106Q126 75 150 51T209 26Q247 26 276 49T315 109Q317 116 318 175Q318 233 317 233Q309 233 296 232T251 223T193 203T147 166T126 106Z"/>
            <path id="lt3-pattern-blocks-MJX-4-TEX-N-73" d="M295 316Q295 356 268 385T190 414Q154 414 128 401Q98 382 98 349Q97 344 98 336T114 312T157 287Q175 282 201 278T245 269T277 256Q294 248 310 236T342 195T359 133Q359 71 321 31T198 -10H190Q138 -10 94 26L86 19L77 10Q71 4 65 -1L54 -11H46H42Q39 -11 33 -5V74V132Q33 153 35 157T45 162H54Q66 162 70 158T75 146T82 119T101 77Q136 26 198 26Q295 26 295 104Q295 133 277 151Q257 175 194 187T111 210Q75 227 54 256T33 318Q33 357 50 384T93 424T143 442T187 447H198Q238 447 268 432L283 424L292 431Q302 440 314 448H322H326Q329 448 335 442V310L329 304H301Q295 310 295 316Z"/>
            <path id="lt3-pattern-blocks-MJX-4-TEX-N-65" d="M28 218Q28 273 48 318T98 391T163 433T229 448Q282 448 320 430T378 380T406 316T415 245Q415 238 408 231H126V216Q126 68 226 36Q246 30 270 30Q312 30 342 62Q359 79 369 104L379 128Q382 131 395 131H398Q415 131 415 121Q415 117 412 108Q393 53 349 21T250 -11Q155 -11 92 58T28 218ZM333 275Q322 403 238 411H236Q228 411 220 410T195 402T166 381T143 340T127 274V267H333V275Z"/>
            <path id="lt3-pattern-blocks-MJX-4-TEX-N-A0" d=""/>
            <path id="lt3-pattern-blocks-MJX-4-TEX-N-33" d="M127 463Q100 463 85 480T69 524Q69 579 117 622T233 665Q268 665 277 664Q351 652 390 611T430 522Q430 470 396 421T302 350L299 348Q299 347 308 345T337 336T375 315Q457 262 457 175Q457 96 395 37T238 -22Q158 -22 100 21T42 130Q42 158 60 175T105 193Q133 193 151 175T169 130Q169 119 166 110T159 94T148 82T136 74T126 70T118 67L114 66Q165 21 238 21Q293 21 321 74Q338 107 338 175V195Q338 290 274 322Q259 328 213 329L171 330L168 332Q166 335 166 348Q166 366 174 366Q202 366 232 371Q266 376 294 413T322 525V533Q322 590 287 612Q265 626 240 626Q208 626 181 615T143 592T132 580H135Q138 579 143 578T153 573T165 566T175 555T183 540T186 520Q186 498 172 481T127 463Z"/>
          </defs>
          <g stroke="currentColor" fill="currentColor" stroke-width="0" transform="scale(1,-1)">
            <g data-mml-node="math" data-semantic-type="punctuated" data-semantic-role="text" data-semantic-id="3" data-semantic-children="0,1" data-semantic-collapsed="(3 (c 2) 0 1)" data-semantic-speech="Case 3">
              <g data-mml-node="mtext" data-semantic-type="text" data-semantic-role="unknown" data-semantic-font="normal" data-semantic-annotation="clearspeak:unit" data-semantic-id="0" data-semantic-parent="3" data-semantic-speech="Case">
                <use data-c="43" xlink:href="#lt3-pattern-blocks-MJX-4-TEX-N-43"/>
                <use data-c="61" xlink:href="#lt3-pattern-blocks-MJX-4-TEX-N-61" transform="translate(722,0)"/>
                <use data-c="73" xlink:href="#lt3-pattern-blocks-MJX-4-TEX-N-73" transform="translate(1222,0)"/>
                <use data-c="65" xlink:href="#lt3-pattern-blocks-MJX-4-TEX-N-65" transform="translate(1616,0)"/>
                <use data-c="A0" xlink:href="#lt3-pattern-blocks-MJX-4-TEX-N-A0" transform="translate(2060,0)"/>
              </g>
              <g data-mml-node="mn" data-semantic-type="number" data-semantic-role="integer" data-semantic-font="normal" data-semantic-annotation="clearspeak:simple" data-semantic-id="1" data-semantic-parent="3" data-semantic-speech="3" transform="translate(2310,0)">
                <use data-c="33" xlink:href="#lt3-pattern-blocks-MJX-4-TEX-N-33"/>
              </g>
            </g>
          </g>
        </svg>
      </g>
    </g>
    <g id="lt3-pattern-blocks-group-16-case_4-case_4">
      <g id="lt3-pattern-blocks-group-17-case_4-col_0-case_4-col_0">
        <path id="lt3-pattern-blocks-path-24-case_4-col_0-row_0" d="M 416.8 137.8 L 428.3 137.8 L 428.3 112.2 L 416.8 112.2 Z" stroke="black" stroke-width="2" fill="mediumpurple"/>
        <path id="lt3-pattern-blocks-path-25-case_4-col_0-row_1" d="M 416.8 107.8 L 428.3 107.8 L 428.3 82.2 L 416.8 82.2 Z" stroke="black" stroke-width="2" fill="mediumpurple"/>
      </g>
      <g id="lt3-pattern-blocks-group-18-case_4-col_1-case_4-col_1">
        <path id="lt3-pattern-blocks-path-26-case_4-col_1-row_0" d="M 430.3 137.8 L 441.7 137.8 L 441.7 112.2 L 430.3 112.2 Z" stroke="black" stroke-width="2" fill="mediumpurple"/>
        <path id="lt3-pattern-blocks-path-27-case_4-col_1-row_1" d="M 430.3 107.8 L 441.7 107.8 L 441.7 82.2 L 430.3 82.2 Z" stroke="black" stroke-width="2" fill="mediumpurple"/>
      </g>
      <g id="lt3-pattern-blocks-group-19-case_4-col_2-case_4-col_2">
        <path id="lt3-pattern-blocks-path-28-case_4-col_2-row_0" d="M 443.8 137.8 L 455.2 137.8 L 455.2 112.2 L 443.8 112.2 Z" stroke="black" stroke-width="2" fill="mediumpurple"/>
        <path id="lt3-pattern-blocks-path-29-case_4-col_2-row_1" d="M 443.8 107.8 L 455.2 107.8 L 455.2 82.2 L 443.8 82.2 Z" stroke="black" stroke-width="2" fill="mediumpurple"/>
      </g>
      <g id="lt3-pattern-blocks-group-20-case_4-col_3-case_4-col_3">
        <path id="lt3-pattern-blocks-path-30-case_4-col_3-row_0" d="M 457.2 137.8 L 468.7 137.8 L 468.7 112.2 L 457.2 112.2 Z" stroke="black" stroke-width="2" fill="mediumpurple"/>
        <path id="lt3-pattern-blocks-path-31-case_4-col_3-row_1" d="M 457.2 107.8 L 468.7 107.8 L 468.7 82.2 L 457.2 82.2 Z" stroke="black" stroke-width="2" fill="mediumpurple"/>
      </g>
      <g id="lt3-pattern-blocks-group-21-case_4-col_4-case_4-col_4">
        <path id="lt3-pattern-blocks-path-32-case_4-col_4-row_0" d="M 470.7 137.8 L 482.2 137.8 L 482.2 112.2 L 470.7 112.2 Z" stroke="black" stroke-width="2" fill="mediumpurple"/>
        <path id="lt3-pattern-blocks-path-33-case_4-col_4-row_1" d="M 470.7 107.8 L 482.2 107.8 L 482.2 82.2 L 470.7 82.2 Z" stroke="black" stroke-width="2" fill="mediumpurple"/>
      </g>
      <g id="lt3-pattern-blocks-group-22-case_4-col_5-case_4-col_5">
        <path id="lt3-pattern-blocks-path-34-case_4-col_5-row_0" d="M 484.2 137.8 L 495.6 137.8 L 495.6 112.2 L 484.2 112.2 Z" stroke="black" stroke-width="2" fill="mediumpurple"/>
        <path id="lt3-pattern-blocks-path-35-case_4-col_5-row_1" d="M 484.2 107.8 L 495.6 107.8 L 495.6 82.2 L 484.2 82.2 Z" stroke="black" stroke-width="2" fill="mediumpurple"/>
      </g>
    </g>
    <g id="lt3-pattern-blocks-label-3-case_4" transform="translate(449.5,167.0) translate(-25.4,-6.6)">
      <g id="lt3-pattern-blocks-g-3">
        <svg xmlns:xlink="http://www.w3.org/1999/xlink" style="vertical-align: -0.384px" width="50.856px" height="13.144px" role="img" focusable="false" viewBox="0 -705 2810 726" x="0.0" y="0.0">
          <defs>
            <path id="lt3-pattern-blocks-MJX-5-TEX-N-43" d="M56 342Q56 428 89 500T174 615T283 681T391 705Q394 705 400 705T408 704Q499 704 569 636L582 624L612 663Q639 700 643 704Q644 704 647 704T653 705H657Q660 705 666 699V419L660 413H626Q620 419 619 430Q610 512 571 572T476 651Q457 658 426 658Q322 658 252 588Q173 509 173 342Q173 221 211 151Q232 111 263 84T328 45T384 29T428 24Q517 24 571 93T626 244Q626 251 632 257H660L666 251V236Q661 133 590 56T403 -21Q262 -21 159 83T56 342Z"/>
            <path id="lt3-pattern-blocks-MJX-5-TEX-N-61" d="M137 305T115 305T78 320T63 359Q63 394 97 421T218 448Q291 448 336 416T396 340Q401 326 401 309T402 194V124Q402 76 407 58T428 40Q443 40 448 56T453 109V145H493V106Q492 66 490 59Q481 29 455 12T400 -6T353 12T329 54V58L327 55Q325 52 322 49T314 40T302 29T287 17T269 6T247 -2T221 -8T190 -11Q130 -11 82 20T34 107Q34 128 41 147T68 188T116 225T194 253T304 268H318V290Q318 324 312 340Q290 411 215 411Q197 411 181 410T156 406T148 403Q170 388 170 359Q170 334 154 320ZM126 106Q126 75 150 51T209 26Q247 26 276 49T315 109Q317 116 318 175Q318 233 317 233Q309 233 296 232T251 223T193 203T147 166T126 106Z"/>
            <path id="lt3-pattern-blocks-MJX-5-TEX-N-73" d="M295 316Q295 356 268 385T190 414Q154 414 128 401Q98 382 98 349Q97 344 98 336T114 312T157 287Q175 282 201 278T245 269T277 256Q294 248 310 236T342 195T359 133Q359 71 321 31T198 -10H190Q138 -10 94 26L86 19L77 10Q71 4 65 -1L54 -11H46H42Q39 -11 33 -5V74V132Q33 153 35 157T45 162H54Q66 162 70 158T75 146T82 119T101 77Q136 26 198 26Q295 26 295 104Q295 133 277 151Q257 175 194 187T111 210Q75 227 54 256T33 318Q33 357 50 384T93 424T143 442T187 447H198Q238 447 268 432L283 424L292 431Q302 440 314 448H322H326Q329 448 335 442V310L329 304H301Q295 310 295 316Z"/>
            <path id="lt3-pattern-blocks-MJX-5-TEX-N-65" d="M28 218Q28 273 48 318T98 391T163 433T229 448Q282 448 320 430T378 380T406 316T415 245Q415 238 408 231H126V216Q126 68 226 36Q246 30 270 30Q312 30 342 62Q359 79 369 104L379 128Q382 131 395 131H398Q415 131 415 121Q415 117 412 108Q393 53 349 21T250 -11Q155 -11 92 58T28 218ZM333 275Q322 403 238 411H236Q228 411 220 410T195 402T166 381T143 340T127 274V267H333V275Z"/>
            <path id="lt3-pattern-blocks-MJX-5-TEX-N-A0" d=""/>
            <path id="lt3-pattern-blocks-MJX-5-TEX-N-34" d="M462 0Q444 3 333 3Q217 3 199 0H190V46H221Q241 46 248 46T265 48T279 53T286 61Q287 63 287 115V165H28V211L179 442Q332 674 334 675Q336 677 355 677H373L379 671V211H471V165H379V114Q379 73 379 66T385 54Q393 47 442 46H471V0H462ZM293 211V545L74 212L183 211H293Z"/>
          </defs>
          <g stroke="currentColor" fill="currentColor" stroke-width="0" transform="scale(1,-1)">
            <g data-mml-node="math" data-semantic-type="punctuated" data-semantic-role="text" data-semantic-id="3" data-semantic-children="0,1" data-semantic-collapsed="(3 (c 2) 0 1)" data-semantic-speech="Case 4">
              <g data-mml-node="mtext" data-semantic-type="text" data-semantic-role="unknown" data-semantic-font="normal" data-semantic-annotation="clearspeak:unit" data-semantic-id="0" data-semantic-parent="3" data-semantic-speech="Case">
                <use data-c="43" xlink:href="#lt3-pattern-blocks-MJX-5-TEX-N-43"/>
                <use data-c="61" xlink:href="#lt3-pattern-blocks-MJX-5-TEX-N-61" transform="translate(722,0)"/>
                <use data-c="73" xlink:href="#lt3-pattern-blocks-MJX-5-TEX-N-73" transform="translate(1222,0)"/>
                <use data-c="65" xlink:href="#lt3-pattern-blocks-MJX-5-TEX-N-65" transform="translate(1616,0)"/>
                <use data-c="A0" xlink:href="#lt3-pattern-blocks-MJX-5-TEX-N-A0" transform="translate(2060,0)"/>
              </g>
              <g data-mml-node="mn" data-semantic-type="number" data-semantic-role="integer" data-semantic-font="normal" data-semantic-annotation="clearspeak:simple" data-semantic-id="1" data-semantic-parent="3" data-semantic-speech="4" transform="translate(2310,0)">
                <use data-c="34" xlink:href="#lt3-pattern-blocks-MJX-5-TEX-N-34"/>
              </g>
            </g>
          </g>
        </svg>
      </g>
    </g>
    <g id="lt3-pattern-blocks-group-23-case_5-case_5">
      <g id="lt3-pattern-blocks-group-24-case_5-col_0-case_5-col_0">
        <path id="lt3-pattern-blocks-path-36-case_5-col_0-row_0" d="M 551.5 137.8 L 563.0 137.8 L 563.0 112.2 L 551.5 112.2 Z" stroke="black" stroke-width="2" fill="mediumpurple"/>
        <path id="lt3-pattern-blocks-path-37-case_5-col_0-row_1" d="M 551.5 107.8 L 563.0 107.8 L 563.0 82.2 L 551.5 82.2 Z" stroke="black" stroke-width="2" fill="mediumpurple"/>
      </g>
      <g id="lt3-pattern-blocks-group-25-case_5-col_1-case_5-col_1">
        <path id="lt3-pattern-blocks-path-38-case_5-col_1-row_0" d="M 565.0 137.8 L 576.4 137.8 L 576.4 112.2 L 565.0 112.2 Z" stroke="black" stroke-width="2" fill="mediumpurple"/>
        <path id="lt3-pattern-blocks-path-39-case_5-col_1-row_1" d="M 565.0 107.8 L 576.4 107.8 L 576.4 82.2 L 565.0 82.2 Z" stroke="black" stroke-width="2" fill="mediumpurple"/>
      </g>
      <g id="lt3-pattern-blocks-group-26-case_5-col_2-case_5-col_2">
        <path id="lt3-pattern-blocks-path-40-case_5-col_2-row_0" d="M 578.5 137.8 L 589.9 137.8 L 589.9 112.2 L 578.5 112.2 Z" stroke="black" stroke-width="2" fill="mediumpurple"/>
        <path id="lt3-pattern-blocks-path-41-case_5-col_2-row_1" d="M 578.5 107.8 L 589.9 107.8 L 589.9 82.2 L 578.5 82.2 Z" stroke="black" stroke-width="2" fill="mediumpurple"/>
      </g>
      <g id="lt3-pattern-blocks-group-27-case_5-col_3-case_5-col_3">
        <path id="lt3-pattern-blocks-path-42-case_5-col_3-row_0" d="M 591.9 137.8 L 603.4 137.8 L 603.4 112.2 L 591.9 112.2 Z" stroke="black" stroke-width="2" fill="mediumpurple"/>
        <path id="lt3-pattern-blocks-path-43-case_5-col_3-row_1" d="M 591.9 107.8 L 603.4 107.8 L 603.4 82.2 L 591.9 82.2 Z" stroke="black" stroke-width="2" fill="mediumpurple"/>
      </g>
      <g id="lt3-pattern-blocks-group-28-case_5-col_4-case_5-col_4">
        <path id="lt3-pattern-blocks-path-44-case_5-col_4-row_0" d="M 605.4 137.8 L 616.8 137.8 L 616.8 112.2 L 605.4 112.2 Z" stroke="black" stroke-width="2" fill="mediumpurple"/>
        <path id="lt3-pattern-blocks-path-45-case_5-col_4-row_1" d="M 605.4 107.8 L 616.8 107.8 L 616.8 82.2 L 605.4 82.2 Z" stroke="black" stroke-width="2" fill="mediumpurple"/>
      </g>
      <g id="lt3-pattern-blocks-group-29-case_5-col_5-case_5-col_5">
        <path id="lt3-pattern-blocks-path-46-case_5-col_5-row_0" d="M 618.9 137.8 L 630.3 137.8 L 630.3 112.2 L 618.9 112.2 Z" stroke="black" stroke-width="2" fill="mediumpurple"/>
        <path id="lt3-pattern-blocks-path-47-case_5-col_5-row_1" d="M 618.9 107.8 L 630.3 107.8 L 630.3 82.2 L 618.9 82.2 Z" stroke="black" stroke-width="2" fill="mediumpurple"/>
      </g>
      <g id="lt3-pattern-blocks-group-30-case_5-col_6-case_5-col_6">
        <path id="lt3-pattern-blocks-path-48-case_5-col_6-row_0" d="M 632.3 137.8 L 643.8 137.8 L 643.8 112.2 L 632.3 112.2 Z" stroke="black" stroke-width="2" fill="mediumpurple"/>
        <path id="lt3-pattern-blocks-path-49-case_5-col_6-row_1" d="M 632.3 107.8 L 643.8 107.8 L 643.8 82.2 L 632.3 82.2 Z" stroke="black" stroke-width="2" fill="mediumpurple"/>
      </g>
    </g>
    <g id="lt3-pattern-blocks-label-4-case_5" transform="translate(584.2,167.0) translate(-25.4,-6.6)">
      <g id="lt3-pattern-blocks-g-4">
        <svg xmlns:xlink="http://www.w3.org/1999/xlink" style="vertical-align: -0.400px" width="50.856px" height="13.160px" role="img" focusable="false" viewBox="0 -705 2810 727" x="0.0" y="0.0">
          <defs>
            <path id="lt3-pattern-blocks-MJX-6-TEX-N-43" d="M56 342Q56 428 89 500T174 615T283 681T391 705Q394 705 400 705T408 704Q499 704 569 636L582 624L612 663Q639 700 643 704Q644 704 647 704T653 705H657Q660 705 666 699V419L660 413H626Q620 419 619 430Q610 512 571 572T476 651Q457 658 426 658Q322 658 252 588Q173 509 173 342Q173 221 211 151Q232 111 263 84T328 45T384 29T428 24Q517 24 571 93T626 244Q626 251 632 257H660L666 251V236Q661 133 590 56T403 -21Q262 -21 159 83T56 342Z"/>
            <path id="lt3-pattern-blocks-MJX-6-TEX-N-61" d="M137 305T115 305T78 320T63 359Q63 394 97 421T218 448Q291 448 336 416T396 340Q401 326 401 309T402 194V124Q402 76 407 58T428 40Q443 40 448 56T453 109V145H493V106Q492 66 490 59Q481 29 455 12T400 -6T353 12T329 54V58L327 55Q325 52 322 49T314 40T302 29T287 17T269 6T247 -2T221 -8T190 -11Q130 -11 82 20T34 107Q34 128 41 147T68 188T116 225T194 253T304 268H318V290Q318 324 312 340Q290 411 215 411Q197 411 181 410T156 406T148 403Q170 388 170 359Q170 334 154 320ZM126 106Q126 75 150 51T209 26Q247 26 276 49T315 109Q317 116 318 175Q318 233 317 233Q309 233 296 232T251 223T193 203T147 166T126 106Z"/>
            <path id="lt3-pattern-blocks-MJX-6-TEX-N-73" d="M295 316Q295 356 268 385T190 414Q154 414 128 401Q98 382 98 349Q97 344 98 336T114 312T157 287Q175 282 201 278T245 269T277 256Q294 248 310 236T342 195T359 133Q359 71 321 31T198 -10H190Q138 -10 94 26L86 19L77 10Q71 4 65 -1L54 -11H46H42Q39 -11 33 -5V74V132Q33 153 35 157T45 162H54Q66 162 70 158T75 146T82 119T101 77Q136 26 198 26Q295 26 295 104Q295 133 277 151Q257 175 194 187T111 210Q75 227 54 256T33 318Q33 357 50 384T93 424T143 442T187 447H198Q238 447 268 432L283 424L292 431Q302 440 314 448H322H326Q329 448 335 442V310L329 304H301Q295 310 295 316Z"/>
            <path id="lt3-pattern-blocks-MJX-6-TEX-N-65" d="M28 218Q28 273 48 318T98 391T163 433T229 448Q282 448 320 430T378 380T406 316T415 245Q415 238 408 231H126V216Q126 68 226 36Q246 30 270 30Q312 30 342 62Q359 79 369 104L379 128Q382 131 395 131H398Q415 131 415 121Q415 117 412 108Q393 53 349 21T250 -11Q155 -11 92 58T28 218ZM333 275Q322 403 238 411H236Q228 411 220 410T195 402T166 381T143 340T127 274V267H333V275Z"/>
            <path id="lt3-pattern-blocks-MJX-6-TEX-N-A0" d=""/>
            <path id="lt3-pattern-blocks-MJX-6-TEX-N-35" d="M164 157Q164 133 148 117T109 101H102Q148 22 224 22Q294 22 326 82Q345 115 345 210Q345 313 318 349Q292 382 260 382H254Q176 382 136 314Q132 307 129 306T114 304Q97 304 95 310Q93 314 93 485V614Q93 664 98 664Q100 666 102 666Q103 666 123 658T178 642T253 634Q324 634 389 662Q397 666 402 666Q410 666 410 648V635Q328 538 205 538Q174 538 149 544L139 546V374Q158 388 169 396T205 412T256 420Q337 420 393 355T449 201Q449 109 385 44T229 -22Q148 -22 99 32T50 154Q50 178 61 192T84 210T107 214Q132 214 148 197T164 157Z"/>
          </defs>
          <g stroke="currentColor" fill="currentColor" stroke-width="0" transform="scale(1,-1)">
            <g data-mml-node="math" data-semantic-type="punctuated" data-semantic-role="text" data-semantic-id="3" data-semantic-children="0,1" data-semantic-collapsed="(3 (c 2) 0 1)" data-semantic-speech="Case 5">
              <g data-mml-node="mtext" data-semantic-type="text" data-semantic-role="unknown" data-semantic-font="normal" data-semantic-annotation="clearspeak:unit" data-semantic-id="0" data-semantic-parent="3" data-semantic-speech="Case">
                <use data-c="43" xlink:href="#lt3-pattern-blocks-MJX-6-TEX-N-43"/>
                <use data-c="61" xlink:href="#lt3-pattern-blocks-MJX-6-TEX-N-61" transform="translate(722,0)"/>
                <use data-c="73" xlink:href="#lt3-pattern-blocks-MJX-6-TEX-N-73" transform="translate(1222,0)"/>
                <use data-c="65" xlink:href="#lt3-pattern-blocks-MJX-6-TEX-N-65" transform="translate(1616,0)"/>
                <use data-c="A0" xlink:href="#lt3-pattern-blocks-MJX-6-TEX-N-A0" transform="translate(2060,0)"/>
              </g>
              <g data-mml-node="mn" data-semantic-type="number" data-semantic-role="integer" data-semantic-font="normal" data-semantic-annotation="clearspeak:simple" data-semantic-id="1" data-semantic-parent="3" data-semantic-speech="5" transform="translate(2310,0)">
                <use data-c="35" xlink:href="#lt3-pattern-blocks-MJX-6-TEX-N-35"/>
              </g>
            </g>
          </g>
        </svg>
      </g>
    </g>
  </g>
</svg>
